<svg width="40" height="41" viewBox="0 0 40 41" fill="none" xmlns="http://www.w3.org/2000/svg">
<g clip-path="url(#clip0_8095_638)">
<path d="M28.75 25.3037C30.8211 25.3037 32.5 23.6248 32.5 21.5537C32.5 19.4826 30.8211 17.8037 28.75 17.8037C26.6789 17.8037 25 19.4826 25 21.5537C25 23.6248 26.6789 25.3037 28.75 25.3037Z" stroke="#3A54B2" stroke-width="2" stroke-miterlimit="10" stroke-linecap="square"/>
<path d="M38.75 22.1787C38.75 27.7018 28.75 37.1787 28.75 37.1787C28.75 37.1787 18.75 27.7018 18.75 22.1787C18.75 19.5265 19.8036 16.983 21.6789 15.1076C23.5543 13.2323 26.0978 12.1787 28.75 12.1787C31.4022 12.1787 33.9457 13.2323 35.8211 15.1076C37.6964 16.983 38.75 19.5265 38.75 22.1787Z" stroke="#3A54B2" stroke-width="2" stroke-miterlimit="10" stroke-linecap="square"/>
<path d="M15 8.42871C15 12.2256 8.125 18.4287 8.125 18.4287C8.125 18.4287 1.25 12.2256 1.25 8.42871C1.25 6.60535 1.97433 4.85666 3.26364 3.56735C4.55295 2.27804 6.30164 1.55371 8.125 1.55371C9.94836 1.55371 11.697 2.27804 12.9864 3.56735C14.2757 4.85666 15 6.60535 15 8.42871Z" stroke="#3A54B2" stroke-width="2" stroke-miterlimit="10" stroke-linecap="square"/>
<path d="M8.125 10.3037C9.16053 10.3037 10 9.46424 10 8.42871C10 7.39318 9.16053 6.55371 8.125 6.55371C7.08947 6.55371 6.25 7.39318 6.25 8.42871C6.25 9.46424 7.08947 10.3037 8.125 10.3037Z" stroke="#3A54B2" stroke-width="2" stroke-miterlimit="10" stroke-linecap="square"/>
<path d="M18.125 33.4287C15.4728 33.4287 12.9293 32.3751 11.0539 30.4998C9.17857 28.6244 8.125 26.0809 8.125 23.4287" stroke="#3A54B2" stroke-width="2" stroke-miterlimit="10" stroke-linecap="square"/>
</g>
<defs>
<clipPath id="clip0_8095_638">
<rect width="40" height="40" fill="white" transform="translate(0 0.303711)"/>
</clipPath>
</defs>
</svg>
