<svg width="40" height="40" fill="none" xmlns="http://www.w3.org/2000/svg"><g clip-path="url(#a)" stroke="#F96D41" stroke-width="2"><path d="M38.75 22.5v-5l-5.372-.671a13.636 13.636 0 0 0-1.675-4.046l3.323-4.273-3.536-3.536-4.272 3.323a13.678 13.678 0 0 0-4.047-1.672L22.5 1.25h-5l-.671 5.375c-1.43.337-2.797.903-4.046 1.676L8.51 4.974 4.974 8.51l3.323 4.273a13.677 13.677 0 0 0-1.672 4.046L1.25 17.5v5l5.375.671c.337 1.43.903 2.797 1.676 4.047L4.974 31.49l3.536 3.536 4.273-3.324a13.686 13.686 0 0 0 4.046 1.676l.671 5.372h5l.671-5.372a13.637 13.637 0 0 0 4.047-1.675l4.272 3.323 3.536-3.536-3.324-4.272a13.686 13.686 0 0 0 1.676-4.047l5.372-.671Z" stroke-miterlimit="10" stroke-linecap="square"/><path d="M16.875 15h6.875m-6.875 3.125h6.875m-2.005 8.125-4.87-5h1.719c3.82 0 3.82-6.25 0-6.25" stroke-linecap="round" stroke-linejoin="round"/></g><defs><clipPath id="a"><path fill="#fff" d="M0 0h40v40H0z"/></clipPath></defs></svg>