<svg width="40" height="41" viewBox="0 0 40 41" fill="none" xmlns="http://www.w3.org/2000/svg">
<path d="M6.875 25.3037V9.36621C6.875 7.62573 7.5664 5.95653 8.79711 4.72582C10.0278 3.49512 11.697 2.80371 13.4375 2.80371C15.178 2.80371 16.8472 3.49512 18.0779 4.72582C19.3086 5.95653 20 7.62573 20 9.36621V31.2412C20 32.9817 20.6914 34.6509 21.9221 35.8816C23.1528 37.1123 24.822 37.8037 26.5625 37.8037C28.303 37.8037 29.9722 37.1123 31.2029 35.8816C32.4336 34.6509 33.125 32.9817 33.125 31.2412V15.3037" stroke="#3A54B2" stroke-width="2" stroke-miterlimit="10" stroke-linecap="square"/>
<path d="M33.125 11.5537C35.5412 11.5537 37.5 9.59496 37.5 7.17871C37.5 4.76247 35.5412 2.80371 33.125 2.80371C30.7088 2.80371 28.75 4.76247 28.75 7.17871C28.75 9.59496 30.7088 11.5537 33.125 11.5537Z" stroke="#3A54B2" stroke-width="2" stroke-miterlimit="10" stroke-linecap="square"/>
<path d="M6.875 37.8037C9.29125 37.8037 11.25 35.845 11.25 33.4287C11.25 31.0125 9.29125 29.0537 6.875 29.0537C4.45875 29.0537 2.5 31.0125 2.5 33.4287C2.5 35.845 4.45875 37.8037 6.875 37.8037Z" stroke="#3A54B2" stroke-width="2" stroke-miterlimit="10" stroke-linecap="square"/>
</svg>
