<svg width="40" height="40" viewBox="0 0 40 40" fill="none" xmlns="http://www.w3.org/2000/svg">
<g clip-path="url(#clip0_8131_4643)">
<path d="M20.0003 8.33366C21.8413 8.33366 23.3337 6.84127 23.3337 5.00033C23.3337 3.15938 21.8413 1.66699 20.0003 1.66699C18.1594 1.66699 16.667 3.15938 16.667 5.00033C16.667 6.84127 18.1594 8.33366 20.0003 8.33366Z" stroke="#F96D41" stroke-width="2" stroke-miterlimit="10" stroke-linecap="square"/>
<path d="M35.0003 16.6667C36.8413 16.6667 38.3337 15.1743 38.3337 13.3333C38.3337 11.4924 36.8413 10 35.0003 10C33.1594 10 31.667 11.4924 31.667 13.3333C31.667 15.1743 33.1594 16.6667 35.0003 16.6667Z" stroke="#F96D41" stroke-width="2" stroke-miterlimit="10" stroke-linecap="square"/>
<path d="M5.00033 16.6667C6.84127 16.6667 8.33366 15.1743 8.33366 13.3333C8.33366 11.4924 6.84127 10 5.00033 10C3.15938 10 1.66699 11.4924 1.66699 13.3333C1.66699 15.1743 3.15938 16.6667 5.00033 16.6667Z" stroke="#F96D41" stroke-width="2" stroke-miterlimit="10" stroke-linecap="square"/>
<path d="M15.759 30.1436L10.354 32.4677C9.12898 32.9927 8.33398 34.1977 8.33398 35.5319V38.3336H31.6673V35.5319C31.6673 34.1986 30.8723 32.9936 29.6473 32.4677L24.2298 30.1544" stroke="#F96D41" stroke-width="2" stroke-miterlimit="10"/>
<path d="M20.0007 31.667C16.319 31.667 13.334 28.682 13.334 25.0003V23.3337C13.334 19.652 16.319 16.667 20.0007 16.667C23.6823 16.667 26.6673 19.652 26.6673 23.3337V25.0003C26.6673 28.682 23.6823 31.667 20.0007 31.667Z" stroke="#F96D41" stroke-width="2" stroke-miterlimit="10" stroke-linecap="square"/>
</g>
<defs>
<clipPath id="clip0_8131_4643">
<rect width="40" height="40" fill="white"/>
</clipPath>
</defs>
</svg>
