<svg width="492" height="490" fill="none" xmlns="http://www.w3.org/2000/svg"><path transform="rotate(45 386.797 103.707)" stroke="url(#a)" d="M386.797 103.707h1v393h-1z"/><path transform="rotate(-45 108.504 104)" stroke="url(#b)" d="M108.504 104h1v393h-1z"/><path stroke="url(#c)" d="M247.297 46.5h1v393h-1z"/><path transform="rotate(-90 51.297 243.5)" stroke="url(#d)" d="M51.297 243.5h1v393h-1z"/><g filter="url(#e)"><path d="M322 243c0 41.421-33.579 75-75 75s-75-33.579-75-75 33.579-75 75-75 75 33.579 75 75Z" fill="#FD8746"/></g><path d="M322 243c0 41.421-33.579 75-75 75s-75-33.579-75-75 33.579-75 75-75 75 33.579 75 75Z" fill="url(#f)"/><path fill-rule="evenodd" clip-rule="evenodd" d="M281.189 200.961a54.904 54.904 0 0 0-14.939-8.346 2.44 2.44 0 0 0 .094-.672c0-1.364-1.119-2.47-2.5-2.47a2.5 2.5 0 0 0-2.353 1.633 55.051 55.051 0 0 0-14.136-1.863c-.116-1.258-1.186-2.243-2.49-2.243-1.376 0-2.492 1.099-2.499 2.457a54.812 54.812 0 0 0-12.115 2.463 2.495 2.495 0 0 0-2.431-1.892c-1.381 0-2.5 1.106-2.5 2.47 0 .42.106.816.294 1.163a54.94 54.94 0 0 0-12.555 7.494 2.505 2.505 0 0 0-1.834-.792c-1.381 0-2.5 1.106-2.5 2.47 0 .605.22 1.159.585 1.588a54.587 54.587 0 0 0-8.922 11.067 2.508 2.508 0 0 0-1.208-.307c-1.381 0-2.5 1.106-2.5 2.47 0 .945.537 1.766 1.326 2.181a53.14 53.14 0 0 0-3.909 10.798 2.554 2.554 0 0 0-.597-.07c-1.381 0-2.5 1.105-2.5 2.47 0 1.248.937 2.279 2.153 2.446a53.41 53.41 0 0 0-.565 7.77c0 2.91.234 5.767.686 8.554a2.474 2.474 0 0 0-1.707 2.343c0 1.364 1.12 2.47 2.5 2.47.073 0 .145-.003.216-.009a53.273 53.273 0 0 0 4.581 11.732 2.46 2.46 0 0 0-1.161 2.086c0 1.364 1.119 2.47 2.5 2.47.432 0 .838-.108 1.192-.299a54.65 54.65 0 0 0 8.934 10.425 2.441 2.441 0 0 0-.464 1.434c0 1.364 1.119 2.47 2.5 2.47.699 0 1.331-.283 1.785-.74a54.87 54.87 0 0 0 14.29 7.767 2.482 2.482 0 0 0-.051.498c0 1.365 1.119 2.471 2.5 2.471a2.501 2.501 0 0 0 2.293-1.485 54.94 54.94 0 0 0 12.146 1.783c.097 1.277 1.176 2.284 2.493 2.284 1.335 0 2.425-1.033 2.497-2.334a55.104 55.104 0 0 0 13.834-2.548 2.5 2.5 0 0 0 2.306 1.515c1.38 0 2.5-1.106 2.5-2.47 0-.274-.045-.537-.128-.783a54.93 54.93 0 0 0 13.203-7.957 2.51 2.51 0 0 0 1.813.768c1.38 0 2.499-1.106 2.499-2.47 0-.614-.227-1.176-.602-1.608a54.31 54.31 0 0 0 8.208-10.232c.341.173.729.271 1.139.271 1.381 0 2.5-1.106 2.5-2.47 0-.905-.493-1.697-1.228-2.127a52.814 52.814 0 0 0 4.299-12.153c.111.015.224.022.339.022 1.381 0 2.5-1.105 2.5-2.469a2.48 2.48 0 0 0-2-2.421 53.22 53.22 0 0 0 .406-6.788c0-2.869-.228-5.687-.668-8.437a2.472 2.472 0 0 0 1.699-2.34c0-1.364-1.119-2.47-2.5-2.47-.066 0-.131.003-.196.008a53.21 53.21 0 0 0-4.755-12.118 2.46 2.46 0 0 0 1.082-2.035c0-1.364-1.119-2.47-2.499-2.47-.409 0-.794.096-1.134.268a54.628 54.628 0 0 0-8.015-9.48 2.44 2.44 0 0 0 .399-1.339c0-1.364-1.119-2.47-2.5-2.47-.623 0-1.193.225-1.63.598Zm-34.347-9.979a2.504 2.504 0 0 1-1.977.958 2.508 2.508 0 0 1-1.869-.83l-6.001 4.001c.105.209.181.436.222.673l16.646-.433c.022-.188.066-.369.129-.541l-7.15-3.828Zm-9.602 5.476 16.634-.434c.064.416.233.797.48 1.117l-7.92 7.696a2.514 2.514 0 0 0-1.569-.546c-.564 0-1.085.185-1.503.497l-6.686-7.005c.309-.367.512-.824.564-1.325Zm9.662 8.869 7.934-7.71c.42.314.942.5 1.509.5.41 0 .798-.098 1.14-.271l7.394 10.055a2.488 2.488 0 0 0-.814.986l-16.699-2.143a2.443 2.443 0 0 0-.464-1.417Zm19.444 2.104c.587 0 1.127.2 1.554.535l6.512-5.688-15.823-5.541a2.481 2.481 0 0 1-.546.723l7.444 10.121c.268-.097.557-.15.859-.15Zm2.5 2.47c0 .164-.016.324-.047.479l13.822 7.236c.162-.187.353-.351.565-.483l-8.248-14.415-6.567 5.735c.299.407.475.907.475 1.448Zm17.891 8.174a2.504 2.504 0 0 0-2.215-1.324c-.248 0-.487.035-.713.102l-7.692-13.444 15.711 11.348a2.439 2.439 0 0 0-.173 1.742l-4.918 1.576Zm-.417 2.861a2.443 2.443 0 0 0 .648-2.226l4.954-1.588a2.506 2.506 0 0 0 2.044 1.2l.211 13.925a2.52 2.52 0 0 0-.64.054l-7.217-11.365Zm-1.197.683c.234-.057.455-.147.658-.264l7.103 11.184a2.467 2.467 0 0 0-1.316 2.176c0 .282.048.552.136.804l-4.932 2.423a2.51 2.51 0 0 0-1.486-.835l-.163-15.488Zm-2.499-.79a2.508 2.508 0 0 0 1.818.861l.162 15.397c-.28.029-.547.104-.792.217l-8.38-9.874a2.45 2.45 0 0 0 .512-2.589l6.68-4.012Zm-9.011 7.376c-.246 0-.483-.036-.708-.101l-5.068 11.734a2.47 2.47 0 0 1 1.036 1.421l13.514-2.019a2.45 2.45 0 0 1 .849-1.567l-8.336-9.821a2.506 2.506 0 0 1-1.287.353Zm-1.329-.378a2.464 2.464 0 0 1-1.168-1.977l-13.498-1.822a2.465 2.465 0 0 1-.826 1.26l8.675 14.342a2.514 2.514 0 0 1 1.755-.084l5.062-11.719Zm-15.978-2.229 8.697 14.291a2.46 2.46 0 0 0-1.031 1.741l-16.618.145a2.453 2.453 0 0 0-.948-1.71l7.983-14.35a2.53 2.53 0 0 0 1.917-.117Zm-2.525-.188-7.964 14.315a2.527 2.527 0 0 0-1.969.028l-8.464-13.632a2.447 2.447 0 0 0 .841-1.825l16.499-.61c.09.714.487 1.333 1.057 1.724Zm-1.063-2.276-16.555.59a2.466 2.466 0 0 0-.955-1.439l8.62-13.276c.316.143.667.222 1.037.222.353 0 .689-.072.993-.202l7.837 12.382a2.459 2.459 0 0 0-.977 1.723Zm1.571-2.054-7.848-12.401c.4-.321.697-.761.837-1.267l16.594 2.13a2.443 2.443 0 0 0 .631 2.028l-7.99 9.704a2.532 2.532 0 0 0-2.224-.194Zm2.75.621 7.989-9.701a2.5 2.5 0 0 0 1.318.371c.36 0 .702-.075 1.011-.21l4.94 11.473a2.472 2.472 0 0 0-1.12 1.545l-13.472-1.819a2.442 2.442 0 0 0-.666-1.659Zm10.904-9.9 4.977 11.56c.22-.063.453-.096.693-.096.818 0 1.543.387 2 .987l6.641-3.99a2.443 2.443 0 0 1-.003-2.077l-13.678-7.161c-.155.3-.37.564-.63.777Zm5.54-10.562-14.679-5.142a2.47 2.47 0 0 0-.068-1.174l3.135-1.462a2.51 2.51 0 0 0 1.973.952c.6 0 1.151-.209 1.582-.557l8.057 7.383Zm-7.593-7.877 9.216 8.445.152.053-.006.016 5.121.446a2.45 2.45 0 0 1 .502-1.042 54.289 54.289 0 0 0-14.785-8.25 2.478 2.478 0 0 1-.2.332ZM196 233.03c0 .627-.236 1.199-.626 1.635l.893.977c.269-.13.564-.214.876-.241l1.704-15.302a2.6 2.6 0 0 1-.332-.066 52.793 52.793 0 0 0-3.888 10.791A2.468 2.468 0 0 1 196 233.03Zm-1.143 2.074c-.332.213-.719.35-1.134.386a53.078 53.078 0 0 0-.567 7.756c0 2.871.23 5.69.672 8.438a2.712 2.712 0 0 1 .626.018l2.091-11.507a2.474 2.474 0 0 1-1.678-2.334c0-.73.32-1.386.83-1.838l-.84-.919Zm4.676-15.008-1.708 15.336c.149.028.293.068.431.12l7.3-12.393a2.442 2.442 0 0 1-.417-2.453l-3.729-1.938a2.496 2.496 0 0 1-1.877 1.328Zm2.101-1.973 3.831 1.992a2.505 2.505 0 0 1 2.345-.984l6.253-11.371a2.758 2.758 0 0 1-.211-.193l-12.463 8.927a2.43 2.43 0 0 1 .245 1.629Zm-.643-2.175 12.461-8.927a2.44 2.44 0 0 1-.133-2.037l-.453-.287a2.506 2.506 0 0 1-1.641.606 2.509 2.509 0 0 1-1.548-.53 54.068 54.068 0 0 0-8.848 11.022c.056.048.11.099.162.153Zm-6.155 40.546a52.623 52.623 0 0 0 4.527 11.601c.195-.069.402-.115.617-.134l-.234-7.352a2.48 2.48 0 0 1-2.043-2.429c0-.376.085-.732.237-1.051l-2.023-1.324c-.29.315-.661.555-1.081.689Zm1.467-1.245 2.009 1.315a2.497 2.497 0 0 1 1.028-.703l-1.998-15.53c-.043 0-.086-.002-.128-.004l-2.103 11.571a2.468 2.468 0 0 1 1.456 2.245c0 .398-.095.773-.264 1.106Zm1.716-15.003 1.99 15.471a2.497 2.497 0 0 1 .451.006l4.463-12.692a2.46 2.46 0 0 1-1.079-2.033l.001-.032-4.352-1.804a2.509 2.509 0 0 1-1.474 1.084Zm1.751-1.7 4.182 1.734a2.492 2.492 0 0 1 1.905-1.705l.698-14.7a2.493 2.493 0 0 1-.483-.253l-7.217 12.254a2.458 2.458 0 0 1 .915 2.67Zm6.771-.01.689-14.499a2.527 2.527 0 0 0 2.168-.876l4.561 2.731a2.455 2.455 0 0 0 .771 2.625l-7.603 10.135a2.465 2.465 0 0 0-.586-.116Zm8.767-9.657-7.559 10.076a2.459 2.459 0 0 1 1.036 2.581l11.939 1.252a2.479 2.479 0 0 1 1.123-1.533l-4.977-12.208a2.52 2.52 0 0 1-1.562-.168Zm2.203-.062 4.96 12.166a2.542 2.542 0 0 1 1.553.058l8.089-14.879a2.473 2.473 0 0 1-.831-1.361l-12.446 2.046a2.47 2.47 0 0 1-1.325 1.97Zm7.087 12.523 8.079-14.823a2.527 2.527 0 0 0 2.14-.021l8.452 13.613a2.455 2.455 0 0 0-.903 1.864l-16.739 1.003a2.466 2.466 0 0 0-1.029-1.636Zm18.654-32.692-8.645 13.314a2.5 2.5 0 0 0-.882-.158c-.448 0-.869.116-1.233.32l-8.198-9.971a2.44 2.44 0 0 0 .561-1.818l17.617-2.858c.142.462.416.867.78 1.171Zm-19.46 3.962 8.158 9.924a2.448 2.448 0 0 0-.72 1.593l-12.428 2.043a2.476 2.476 0 0 0-1.182-1.664l4.249-11.505a2.51 2.51 0 0 0 1.923-.391Zm-6.801 11.635 4.235-11.466a2.496 2.496 0 0 1-.728-.559l-11.064 7.821a2.444 2.444 0 0 1 .326 2.549l4.492 2.69a2.505 2.505 0 0 1 2.739-1.035Zm3.127-12.585-11.188 7.909a2.482 2.482 0 0 0-.447-.252l6.16-11.201a2.523 2.523 0 0 0 2.763-.492l2.775 1.758c-.2.355-.314.763-.314 1.198 0 .387.09.754.251 1.08Zm-18.269 60.621a54.042 54.042 0 0 0 8.849 10.33c.266-.235.584-.415.935-.521l-.563-3.25-.07.001c-1.381 0-2.5-1.105-2.5-2.469 0-.309.057-.604.162-.877l-6.474-3.571a2.541 2.541 0 0 1-.339.357Zm.676-.943 6.463 3.566c.144-.192.315-.362.508-.506l-8.361-13.925a2.538 2.538 0 0 1-.706.167l.235 7.353a2.48 2.48 0 0 1 2.039 2.429c0 .324-.063.633-.178.916Zm7.566 2.732-8.364-13.932c.393-.299.693-.711.851-1.186l9.339 1.854-.001.042v.027c0 1.055.67 1.956 1.613 2.31l-2.342 10.723a2.514 2.514 0 0 0-1.096.162Zm1.937-13.928-9.328-1.853a2.473 2.473 0 0 0-1.575-2.406l4.412-12.546a2.537 2.537 0 0 0 1.444.05l6.229 15.323c-.56.306-.989.817-1.182 1.432Zm-3.492-17.954a2.499 2.499 0 0 1-.925.94l6.236 15.341a2.538 2.538 0 0 1 1.326.051l6.553-13.136a2.457 2.457 0 0 1-1.067-1.926l-12.123-1.27Zm5.956 43.562a54.286 54.286 0 0 0 14.123 7.67c.176-.38.447-.709.783-.955l-1.151-2.092a2.519 2.519 0 0 1-1.115.259c-1.38 0-2.499-1.106-2.499-2.471v-.042l-10-2.627a2.377 2.377 0 0 1-.141.258Zm.341-.902 9.905 2.601a2.51 2.51 0 0 1 .191-.456l-12.163-8.873a2.517 2.517 0 0 1-1.024.611l.564 3.252.059-.001c1.381 0 2.5 1.106 2.5 2.47 0 .135-.011.267-.032.396Zm10.498 1.601-12.153-8.865a2.4 2.4 0 0 0 .226-.534l12.138 1.585a2.48 2.48 0 0 0 2.103 2.418l-.221 4.655a2.508 2.508 0 0 0-2.093.741Zm.298-8.482-12.129-1.584v-.011a2.473 2.473 0 0 0-1.646-2.323l2.339-10.714a2.511 2.511 0 0 0 1.419-.291l10.676 13.81a2.461 2.461 0 0 0-.659 1.113Zm-9.469-15.323 10.674 13.807a2.52 2.52 0 0 1 1.648-.269l4.094-13.057a2.477 2.477 0 0 1-1.447-1.932l-14.232-.017a2.448 2.448 0 0 1-.737 1.468Zm12.97 13.746c.583.279 1.04.774 1.263 1.381l12.763-2.394-.001-.015c0-.649.254-1.239.668-1.68l-8.886-10.715a2.51 2.51 0 0 1-1.708.349l-4.099 13.074Zm1.412 2.224c0 .288-.05.565-.141.822l14.438 7.348a2.502 2.502 0 0 1 1.438-1.011l-.787-7.946a2.496 2.496 0 0 1-2.238-1.783l-12.717 2.385c.005.061.007.123.007.185Zm-.454 1.421a2.505 2.505 0 0 1-1.761 1.033l-.228 4.815a2.47 2.47 0 0 1 1.534 2.278v.013l14.794-.257a2.43 2.43 0 0 1 .112-.528l-14.451-7.354Zm-.569 8.866.016-.052 14.917-.259a2.491 2.491 0 0 0 2.277 2.035l.365 4.041a2.506 2.506 0 0 0-1.408 1.078l-16.167-6.843Zm-.706 1.089a2.46 2.46 0 0 0 .414-.479l16.187 6.851a2.427 2.427 0 0 0-.064.293 54.438 54.438 0 0 1-12.002-1.756c.027-.146.041-.297.041-.452 0-1.364-1.119-2.469-2.5-2.469-.315 0-.616.057-.893.162l-1.183-2.15Zm18.141-4.298-.784-7.912a2.492 2.492 0 0 0 1.906-1.797l13.036 1.509c.001.364.081.708.224 1.019l-12.548 8.014a2.508 2.508 0 0 0-1.834-.833Zm14.249-8.867a2.485 2.485 0 0 1 1.166-1.482l-5.448-12.094a2.547 2.547 0 0 1-1.874-.197l-7.726 10.468c.501.443.82 1.081.834 1.794l13.048 1.511Zm2.409-1.808c.445 0 .862.114 1.223.315l10.115-13.684a2.454 2.454 0 0 1-.74-1.405l-15.488.807a2.463 2.463 0 0 1-1.178 1.925l5.458 12.116c.195-.048.4-.074.61-.074Zm1.767.722c.271.267.48.596.604.963l13.543-2.158-.001-.082c0-.966.562-1.803 1.38-2.209l-3.656-9.982a2.53 2.53 0 0 1-1.747-.227l-10.123 13.695Zm.733 1.748c0 1.016-.62 1.888-1.507 2.267l1.051 4.931a2.507 2.507 0 0 1 2.212 1.118l12.081-9.964a2.447 2.447 0 0 1-.308-.631l-13.532 2.156.003.123Zm-2.5 2.47a2.506 2.506 0 0 1-1.91-.877l-12.536 8.006c.101.206.174.428.214.66l13.915-.268a2.473 2.473 0 0 1 1.691-2.67l-1.039-4.873c-.11.014-.221.022-.335.022Zm-46.725-19.455 14.247.017a2.465 2.465 0 0 1 .963-1.612l-8.056-13.237a2.521 2.521 0 0 1-1.708.022l-6.544 13.118c.579.377.99.985 1.098 1.692Zm8.753-16.852a2.464 2.464 0 0 1-.961 1.669l7.987 13.267c.291-.117.609-.181.943-.181.377 0 .734.082 1.055.23l8.73-14.628a2.473 2.473 0 0 1-.946-1.364l-16.808 1.007Zm9.597 15.351 8.758-14.675a2.52 2.52 0 0 0 1.789-.018l8.877 14.642a2.457 2.457 0 0 0-.909 1.586h-17.667a2.452 2.452 0 0 0-.848-1.535Zm.849 2.209h17.665a2.46 2.46 0 0 0 .745 1.446l-7.741 10.487a2.509 2.509 0 0 0-1.099-.251c-.478 0-.925.133-1.305.363l-8.891-10.72c.331-.361.556-.819.626-1.325Zm27.399 26.938-14.084.272a2.481 2.481 0 0 1-1.991 2.163l.359 3.977h.052c.826 0 1.559.396 2.014 1.006l13.891-6.996a2.41 2.41 0 0 1-.241-.422Zm.727.933-14.051 7.077c.055.143.096.292.123.446a54.205 54.205 0 0 0 13.705-2.547 2.477 2.477 0 0 1 1.944-2.81l-.157-1.625h-.002a2.507 2.507 0 0 1-1.562-.541Zm2.24.45.162 1.666c.824.051 1.54.495 1.957 1.145a54.39 54.39 0 0 0 13.086-7.926 2.327 2.327 0 0 1-.12-.246l-13.293 3.362a2.483 2.483 0 0 1-1.792 1.999Zm1.801-2.696 13.11-3.316a2.47 2.47 0 0 1 1.465-2.555l-.652-4.036a2.51 2.51 0 0 1-1.773-.586l-12.237 10.092c.04.129.069.263.087.401Zm15.593-6.084c.526 0 1.015.161 1.418.436a54.064 54.064 0 0 0 8.154-10.168 2.519 2.519 0 0 1-.48-.579l-8.472 3.489c.039.172.059.35.059.533 0 1.08-.702 1.998-1.679 2.334l.643 3.98a2.61 2.61 0 0 1 .357-.025Zm-2.295-8.715-3.665-10.006a2.464 2.464 0 0 0 1.289-2.331l11.461-2.562c.171.392.441.732.78.988l-8.376 14.079a2.523 2.523 0 0 0-1.489-.168Zm2.068.524 8.39-14.103c.286.113.598.174.924.174h.037l1.312 8.213a2.475 2.475 0 0 0-1.692 2.338c0 .22.029.434.084.637l-8.444 3.478a2.483 2.483 0 0 0-.611-.737Zm11.471-5.848c.237 0 .465.033.682.093a52.553 52.553 0 0 0 4.299-12.057 2.5 2.5 0 0 1-1.165-.944l-3.564 1.694c.06.211.091.434.091.664 0 1.12-.754 2.066-1.789 2.368l1.307 8.186a2.15 2.15 0 0 1 .139-.004Zm-36.412-6.334a2.471 2.471 0 0 0-.961-1.488l7.972-14.641a2.521 2.521 0 0 0 1.791-.096l7.72 13.722c-.542.395-.917 1-1.001 1.693l-15.521.81Zm6.413-16.411-8.004 14.587a2.516 2.516 0 0 0-.858-.149c-.349 0-.682.07-.983.198l-8.868-14.626c.488-.367.836-.907.948-1.528l16.665-.145a2.475 2.475 0 0 0 1.1 1.663Zm3.867-2.04 13.439-2.007a2.472 2.472 0 0 0 1.219 1.761l-6.312 15.792a2.522 2.522 0 0 0-1.505.081l-7.74-13.759c.542-.447.89-1.117.899-1.868Zm21.497 14.56-11.418 2.552a2.486 2.486 0 0 0-1.102-1.311l6.312-15.792a2.54 2.54 0 0 0 1.559-.103l5.75 12.267a2.46 2.46 0 0 0-1.101 2.387Zm2.381-2.794a2.526 2.526 0 0 0-.666.116l-5.771-12.313a2.455 2.455 0 0 0 .742-2.983l4.871-2.393a2.508 2.508 0 0 0 2.035 1.065l-1.211 16.508Zm.679.066 1.222-16.663.104-.031.052-.018 4.833 13.282a2.463 2.463 0 0 0-1.112 2.866l-3.543 1.685a2.505 2.505 0 0 0-1.556-1.121Zm6.84-3.692a2.57 2.57 0 0 1 .553-.081c.283-2.208.43-4.458.43-6.74a52.896 52.896 0 0 0-.624-8.322 2.502 2.502 0 0 1-2.508-1.34l-1.696.596a2.459 2.459 0 0 1-1.005 2.557l4.85 13.33Zm-.625-19.968a52.56 52.56 0 0 0-4.662-11.98 2.628 2.628 0 0 1-.421.139l.214 14.114c.608.2 1.112.626 1.411 1.176l1.712-.601a2.476 2.476 0 0 1 1.746-2.848Zm-7.518-15.899c.1-.11.209-.21.328-.301a53.946 53.946 0 0 0-7.899-9.375 2.506 2.506 0 0 1-1.822.779c-1.326 0-2.411-1.02-2.495-2.309l-4.124-.359 16.012 11.565Zm-30.684-21.324-3.079 1.436a2.506 2.506 0 0 0-2.104-1.135c-.84 0-1.583.409-2.036 1.037l-7.126-3.815c.091-.222.15-.459.173-.707 4.848.009 9.549.651 14.021 1.846a2.46 2.46 0 0 0 .151 1.338Zm-19.124-2.971c.041.227.113.444.213.645l-6.004 4.003a2.509 2.509 0 0 0-1.86-.819c-.857 0-1.612.426-2.063 1.075l-2.629-1.216a2.43 2.43 0 0 0 .256-1.209 54.12 54.12 0 0 1 12.087-2.479Zm-28.679 12.928c0 .499-.149.963-.406 1.351l.327.207a2.51 2.51 0 0 1 2.012-1.003 2.51 2.51 0 0 1 1.462.466l9.191-9.386a2.537 2.537 0 0 1-.43-.411 54.378 54.378 0 0 0-12.52 7.492c.231.375.364.814.364 1.284Zm15.947-8.676 2.713 1.254a2.435 2.435 0 0 0 .023 1.65l-14.648 7.459a2.456 2.456 0 0 0-.146-.201l9.315-9.513c.276.105.577.162.891.162.734 0 1.395-.313 1.852-.811Zm-11.847 12.933 2.766 1.751a2.511 2.511 0 0 1 1.776-.731c.481 0 .93.134 1.311.367l9.196-10.643a2.45 2.45 0 0 1-.144-.179l-14.682 7.476a2.433 2.433 0 0 1-.223 1.959Zm6.379 1.815c.209.223.377.485.491.773l17.671-2.866v-.051c0-.563.19-1.083.512-1.498l-6.706-7.025a2.51 2.51 0 0 1-1.419.436c-.503 0-.972-.147-1.364-.399l-9.185 10.63Z" fill="#fff" stroke="#fff" stroke-width=".6"/><g filter="url(#g)"><circle cx="28" cy="28" transform="matrix(-1 0 0 1 275.797 1)" fill="#F7F8FC" r="28"/><g clip-path="url(#h)" stroke="#F96D41"><path d="M263 31v-4l-4.298-.537a10.902 10.902 0 0 0-1.34-3.237l2.659-3.418-2.829-2.828-3.418 2.658a10.94 10.94 0 0 0-3.237-1.338L250 14h-4l-.537 4.3c-1.144.27-2.237.722-3.237 1.34l-3.418-2.66-2.828 2.828 2.658 3.418c-.617 1-1.069 2.093-1.338 3.237L233 27v4l4.3.537c.27 1.144.722 2.237 1.341 3.237l-2.661 3.418 2.828 2.828 3.418-2.658c1 .618 2.093 1.07 3.237 1.34L246 44h4l.537-4.297a10.914 10.914 0 0 0 3.237-1.341l3.418 2.658 2.829-2.828-2.659-3.418c.618-1 1.07-2.093 1.34-3.237L263 31Z" stroke-width="2" stroke-miterlimit="10" stroke-linecap="square"/><path d="M245.5 25h5.5m-5.5 2.5h5.5m-1.604 6.5-3.896-4h1.375c3.056 0 3.056-5 0-5" stroke-width="1.8" stroke-linecap="round" stroke-linejoin="round"/></g></g><g filter="url(#i)"><circle cx="28" cy="28" transform="matrix(-1 0 0 1 490 215)" fill="#F7F8FC" r="28"/><g clip-path="url(#j)" stroke="#F96D41" stroke-width="2" stroke-miterlimit="10"><path d="m454.273 231.765 15.667 8.166"/><path d="M450.797 246.528V242l8 4v4.528l-8-4Z" stroke-linecap="square"/><path d="m476.797 236.5-14 7-16-8M462.797 243.5v14"/><path d="M476.797 236.5v14l-14 7-16-8v-14l14-7 16 8Z" stroke-linecap="square"/></g></g><g filter="url(#k)"><circle cx="28" cy="28" transform="matrix(-1 0 0 1 58 215)" fill="#F7F8FC" r="28"/><g clip-path="url(#l)" stroke="#F96D41" stroke-width="2" stroke-miterlimit="10" stroke-linecap="square"><path d="M21.797 246v4l-2.586 2.586M40.383 252.586 37.797 250v-4M29.797 254v-3"/><path d="M17.797 256a2 2 0 1 0 0-4 2 2 0 0 0 0 4ZM29.797 258a2 2 0 1 0 0-4 2 2 0 0 0 0 4ZM41.797 256a2 2 0 1 0 0-4 2 2 0 0 0 0 4ZM29.797 247a4 4 0 1 0 0-8 4 4 0 0 0 0 8Z"/><path d="M44.797 244v-3l-4.306-.538a10.9 10.9 0 0 0-1.34-3.227l2.667-3.427-2.83-2.829-3.426 2.666a10.902 10.902 0 0 0-3.227-1.339L31.797 228h-4l-.538 4.306a10.9 10.9 0 0 0-3.227 1.339l-3.427-2.666-2.83 2.829 2.667 3.427a10.898 10.898 0 0 0-1.34 3.227l-4.305.538v3"/></g></g><g filter="url(#m)"><circle cx="28" cy="28" transform="matrix(-1 0 0 1 275.797 431.918)" fill="#F7F8FC" r="28"/><path d="M237.297 464v-12.75a5.247 5.247 0 0 1 5.25-5.25 5.247 5.247 0 0 1 5.25 5.25v17.5a5.247 5.247 0 0 0 5.25 5.25 5.247 5.247 0 0 0 5.25-5.25V456M258.297 453a3.5 3.5 0 1 0 0-7 3.5 3.5 0 0 0 0 7ZM237.297 474a3.5 3.5 0 1 0 0-7 3.5 3.5 0 0 0 0 7Z" stroke="#F96D41" stroke-width="2" stroke-miterlimit="10" stroke-linecap="square"/></g><g filter="url(#n)"><circle cx="39" cy="39" transform="matrix(-1 0 0 1 422.258 69.042)" fill="url(#o)" r="39"/><path d="M344.845 108.042c0 21.215 17.198 38.413 38.413 38.413 21.214 0 38.412-17.198 38.412-38.413 0-21.215-17.198-38.413-38.412-38.413-21.215 0-38.413 17.198-38.413 38.413Z" stroke="url(#p)" stroke-width="1.175"/></g><g clip-path="url(#q)" stroke="#fff" stroke-width="2" stroke-miterlimit="10" stroke-linecap="square"><path d="M391.984 113.25a3.938 3.938 0 1 0 0-7.876 3.938 3.938 0 0 0 0 7.876Z"/><path d="M402.484 109.969c0 5.799-10.5 15.75-10.5 15.75s-10.5-9.951-10.5-15.75a10.501 10.501 0 0 1 17.925-7.425 10.5 10.5 0 0 1 3.075 7.425ZM377.547 95.531c0 3.987-7.219 10.5-7.219 10.5s-7.219-6.513-7.219-10.5a7.218 7.218 0 0 1 14.438 0Z"/><path d="M370.328 97.5a1.97 1.97 0 1 0 0-3.938 1.97 1.97 0 0 0 0 3.938ZM380.828 121.781a10.498 10.498 0 0 1-10.5-10.5"/></g><g filter="url(#r)"><circle cx="39" cy="39" transform="matrix(-1 0 0 1 151.258 340.042)" fill="url(#s)" r="39"/><path d="M73.845 379.042c0 21.215 17.198 38.413 38.413 38.413 21.214 0 38.412-17.198 38.412-38.413 0-21.215-17.198-38.413-38.412-38.413-21.215 0-38.413 17.198-38.413 38.413Z" stroke="url(#t)" stroke-width="1.175"/></g><g clip-path="url(#u)" stroke="#fff" stroke-width="2" stroke-miterlimit="10"><path d="M111.797 366.75a3.5 3.5 0 1 0 0-7 3.5 3.5 0 0 0 0 7ZM127.547 375.5a3.5 3.5 0 1 0 0-7 3.5 3.5 0 0 0 0 7ZM96.047 375.5a3.5 3.5 0 1 0 0-7 3.5 3.5 0 0 0 0 7Z" stroke-linecap="square"/><path d="m107.343 389.65-5.675 2.441a3.5 3.5 0 0 0-2.121 3.217v2.942h24.5v-2.942c0-1.4-.835-2.665-2.121-3.217l-5.689-2.429"/><path d="M111.797 391.25a7 7 0 0 1-7-7v-1.75a7 7 0 1 1 14 0v1.75a7 7 0 0 1-7 7Z" stroke-linecap="square"/></g><g filter="url(#v)"><circle cx="39" cy="39" transform="matrix(-1 0 0 1 422.258 340.042)" fill="url(#w)" r="39"/><path d="M344.845 379.042c0 21.215 17.198 38.413 38.413 38.413 21.214 0 38.412-17.198 38.412-38.413 0-21.215-17.198-38.413-38.412-38.413-21.215 0-38.413 17.198-38.413 38.413Z" stroke="url(#x)" stroke-width="1.175"/></g><g clip-path="url(#y)" stroke="#fff" stroke-width="2" stroke-miterlimit="10" stroke-linecap="square"><path d="M390.672 370.469h7.219l4.593 9.187v11.156h-5.25M389.359 390.812h-13.781M367.703 390.812h-4.594V363.25h24.282v19.031"/><path d="M392.641 374.406v5.25h5.906M371.641 394.75a3.938 3.938 0 1 0-.001-7.875 3.938 3.938 0 0 0 .001 7.875ZM393.297 394.75a3.938 3.938 0 1 0-.001-7.875 3.938 3.938 0 0 0 .001 7.875Z"/></g><g filter="url(#z)"><circle cx="39" cy="39" transform="matrix(-1 0 0 1 151.258 69.042)" fill="url(#A)" r="39"/><path d="M73.845 108.042c0 21.215 17.198 38.413 38.413 38.413 21.214 0 38.412-17.198 38.412-38.413 0-21.215-17.198-38.413-38.412-38.413-21.215 0-38.413 17.198-38.413 38.413Z" stroke="url(#B)" stroke-width="1.175"/></g><path d="M106.727 99.777h11.671v9.55h-11.671v-9.55ZM112.555 99.777v3.242M112.555 119.053h11.672v9.549h-11.672v-9.549ZM111.491 109.504h10.611v9.549h-10.611v-9.549ZM100.883 119.053h11.672v9.549h-11.672v-9.549ZM100.874 109.504h10.61v9.549h-10.61v-9.549Z" stroke="#fff" stroke-width="2" stroke-miterlimit="10" stroke-linecap="square"/><path d="m130.594 96.4-18.569-8.206L93.457 96.4v32.114h37.137V96.4Z" stroke="#fff" stroke-width="2"/><defs><linearGradient id="a" x1="387.797" y1="103" x2="387.797" y2="497" gradientUnits="userSpaceOnUse"><stop stop-color="#9CAADD" stop-opacity="0"/><stop offset=".53" stop-color="#9CAADD" stop-opacity=".55"/><stop offset="1" stop-color="#9CAADD" stop-opacity="0"/></linearGradient><linearGradient id="b" x1="108.797" y1="104" x2="108.797" y2="498" gradientUnits="userSpaceOnUse"><stop stop-color="#9CAADD" stop-opacity="0"/><stop offset=".53" stop-color="#9CAADD" stop-opacity=".55"/><stop offset="1" stop-color="#9CAADD" stop-opacity="0"/></linearGradient><linearGradient id="c" x1="247.797" y1="46" x2="247.797" y2="440" gradientUnits="userSpaceOnUse"><stop stop-color="#9CAADD" stop-opacity="0"/><stop offset=".53" stop-color="#9CAADD" stop-opacity=".55"/><stop offset="1" stop-color="#9CAADD" stop-opacity="0"/></linearGradient><linearGradient id="d" x1="51.797" y1="244" x2="51.797" y2="638" gradientUnits="userSpaceOnUse"><stop stop-color="#9CAADD" stop-opacity="0"/><stop offset=".53" stop-color="#9CAADD" stop-opacity=".55"/><stop offset="1" stop-color="#9CAADD" stop-opacity="0"/></linearGradient><linearGradient id="f" x1="247" y1="318" x2="247" y2="168" gradientUnits="userSpaceOnUse"><stop stop-color="#F96D41"/><stop offset="1" stop-color="#FD8F47"/></linearGradient><linearGradient id="o" x1="39" y1="78" x2="39" y2="0" gradientUnits="userSpaceOnUse"><stop stop-color="#4383FF"/><stop offset="1" stop-color="#2D7BDC"/></linearGradient><linearGradient id="p" x1="383.258" y1="147.042" x2="383.258" y2="69.042" gradientUnits="userSpaceOnUse"><stop stop-color="#4383FF"/><stop offset="1" stop-color="#2D7BDC"/></linearGradient><linearGradient id="s" x1="39" y1="78" x2="39" y2="0" gradientUnits="userSpaceOnUse"><stop stop-color="#4383FF"/><stop offset="1" stop-color="#2D7BDC"/></linearGradient><linearGradient id="t" x1="112.258" y1="418.042" x2="112.258" y2="340.042" gradientUnits="userSpaceOnUse"><stop stop-color="#4383FF"/><stop offset="1" stop-color="#2D7BDC"/></linearGradient><linearGradient id="w" x1="39" y1="78" x2="39" y2="0" gradientUnits="userSpaceOnUse"><stop stop-color="#4383FF"/><stop offset="1" stop-color="#2D7BDC"/></linearGradient><linearGradient id="x" x1="383.258" y1="418.042" x2="383.258" y2="340.042" gradientUnits="userSpaceOnUse"><stop stop-color="#4383FF"/><stop offset="1" stop-color="#2D7BDC"/></linearGradient><linearGradient id="A" x1="39" y1="78" x2="39" y2="0" gradientUnits="userSpaceOnUse"><stop stop-color="#4383FF"/><stop offset="1" stop-color="#2D7BDC"/></linearGradient><linearGradient id="B" x1="112.258" y1="147.042" x2="112.258" y2="69.042" gradientUnits="userSpaceOnUse"><stop stop-color="#4383FF"/><stop offset="1" stop-color="#2D7BDC"/></linearGradient><filter id="e" x="149" y="147" width="196" height="196" filterUnits="userSpaceOnUse" color-interpolation-filters="sRGB"><feFlood flood-opacity="0" result="BackgroundImageFix"/><feColorMatrix in="SourceAlpha" values="0 0 0 0 0 0 0 0 0 0 0 0 0 0 0 0 0 0 127 0" result="hardAlpha"/><feOffset dy="2"/><feGaussianBlur stdDeviation="11.5"/><feComposite in2="hardAlpha" operator="out"/><feColorMatrix values="0 0 0 0 1 0 0 0 0 0.517647 0 0 0 0 0.364706 0 0 0 0.7 0"/><feBlend in2="BackgroundImageFix" result="effect1_dropShadow_8326_263"/><feBlend in="SourceGraphic" in2="effect1_dropShadow_8326_263" result="shape"/></filter><filter id="g" x="218.622" y=".413" width="58.35" height="58.35" filterUnits="userSpaceOnUse" color-interpolation-filters="sRGB"><feFlood flood-opacity="0" result="BackgroundImageFix"/><feColorMatrix in="SourceAlpha" values="0 0 0 0 0 0 0 0 0 0 0 0 0 0 0 0 0 0 127 0" result="hardAlpha"/><feOffset dy=".587"/><feGaussianBlur stdDeviation=".587"/><feColorMatrix values="0 0 0 0 0.14902 0 0 0 0 0.196078 0 0 0 0 0.219608 0 0 0 0.06 0"/><feBlend in2="BackgroundImageFix" result="effect1_dropShadow_8326_263"/><feColorMatrix in="SourceAlpha" values="0 0 0 0 0 0 0 0 0 0 0 0 0 0 0 0 0 0 127 0" result="hardAlpha"/><feOffset/><feGaussianBlur stdDeviation=".294"/><feColorMatrix values="0 0 0 0 0.14902 0 0 0 0 0.196078 0 0 0 0 0.219608 0 0 0 0.3 0"/><feBlend in2="effect1_dropShadow_8326_263" result="effect2_dropShadow_8326_263"/><feBlend in="SourceGraphic" in2="effect2_dropShadow_8326_263" result="shape"/></filter><filter id="i" x="432.825" y="214.413" width="58.35" height="58.35" filterUnits="userSpaceOnUse" color-interpolation-filters="sRGB"><feFlood flood-opacity="0" result="BackgroundImageFix"/><feColorMatrix in="SourceAlpha" values="0 0 0 0 0 0 0 0 0 0 0 0 0 0 0 0 0 0 127 0" result="hardAlpha"/><feOffset dy=".587"/><feGaussianBlur stdDeviation=".587"/><feColorMatrix values="0 0 0 0 0.14902 0 0 0 0 0.196078 0 0 0 0 0.219608 0 0 0 0.06 0"/><feBlend in2="BackgroundImageFix" result="effect1_dropShadow_8326_263"/><feColorMatrix in="SourceAlpha" values="0 0 0 0 0 0 0 0 0 0 0 0 0 0 0 0 0 0 127 0" result="hardAlpha"/><feOffset/><feGaussianBlur stdDeviation=".294"/><feColorMatrix values="0 0 0 0 0.14902 0 0 0 0 0.196078 0 0 0 0 0.219608 0 0 0 0.3 0"/><feBlend in2="effect1_dropShadow_8326_263" result="effect2_dropShadow_8326_263"/><feBlend in="SourceGraphic" in2="effect2_dropShadow_8326_263" result="shape"/></filter><filter id="k" x=".825" y="214.413" width="58.35" height="58.35" filterUnits="userSpaceOnUse" color-interpolation-filters="sRGB"><feFlood flood-opacity="0" result="BackgroundImageFix"/><feColorMatrix in="SourceAlpha" values="0 0 0 0 0 0 0 0 0 0 0 0 0 0 0 0 0 0 127 0" result="hardAlpha"/><feOffset dy=".587"/><feGaussianBlur stdDeviation=".587"/><feColorMatrix values="0 0 0 0 0.14902 0 0 0 0 0.196078 0 0 0 0 0.219608 0 0 0 0.06 0"/><feBlend in2="BackgroundImageFix" result="effect1_dropShadow_8326_263"/><feColorMatrix in="SourceAlpha" values="0 0 0 0 0 0 0 0 0 0 0 0 0 0 0 0 0 0 127 0" result="hardAlpha"/><feOffset/><feGaussianBlur stdDeviation=".294"/><feColorMatrix values="0 0 0 0 0.14902 0 0 0 0 0.196078 0 0 0 0 0.219608 0 0 0 0.3 0"/><feBlend in2="effect1_dropShadow_8326_263" result="effect2_dropShadow_8326_263"/><feBlend in="SourceGraphic" in2="effect2_dropShadow_8326_263" result="shape"/></filter><filter id="m" x="218.622" y="431.33" width="58.35" height="58.35" filterUnits="userSpaceOnUse" color-interpolation-filters="sRGB"><feFlood flood-opacity="0" result="BackgroundImageFix"/><feColorMatrix in="SourceAlpha" values="0 0 0 0 0 0 0 0 0 0 0 0 0 0 0 0 0 0 127 0" result="hardAlpha"/><feOffset dy=".587"/><feGaussianBlur stdDeviation=".587"/><feColorMatrix values="0 0 0 0 0.14902 0 0 0 0 0.196078 0 0 0 0 0.219608 0 0 0 0.06 0"/><feBlend in2="BackgroundImageFix" result="effect1_dropShadow_8326_263"/><feColorMatrix in="SourceAlpha" values="0 0 0 0 0 0 0 0 0 0 0 0 0 0 0 0 0 0 127 0" result="hardAlpha"/><feOffset/><feGaussianBlur stdDeviation=".294"/><feColorMatrix values="0 0 0 0 0.14902 0 0 0 0 0.196078 0 0 0 0 0.219608 0 0 0 0.3 0"/><feBlend in2="effect1_dropShadow_8326_263" result="effect2_dropShadow_8326_263"/><feBlend in="SourceGraphic" in2="effect2_dropShadow_8326_263" result="shape"/></filter><filter id="n" x="343.083" y="68.454" width="80.35" height="80.35" filterUnits="userSpaceOnUse" color-interpolation-filters="sRGB"><feFlood flood-opacity="0" result="BackgroundImageFix"/><feColorMatrix in="SourceAlpha" values="0 0 0 0 0 0 0 0 0 0 0 0 0 0 0 0 0 0 127 0" result="hardAlpha"/><feOffset dy=".587"/><feGaussianBlur stdDeviation=".587"/><feColorMatrix values="0 0 0 0 0.14902 0 0 0 0 0.196078 0 0 0 0 0.219608 0 0 0 0.06 0"/><feBlend in2="BackgroundImageFix" result="effect1_dropShadow_8326_263"/><feColorMatrix in="SourceAlpha" values="0 0 0 0 0 0 0 0 0 0 0 0 0 0 0 0 0 0 127 0" result="hardAlpha"/><feOffset/><feGaussianBlur stdDeviation=".294"/><feColorMatrix values="0 0 0 0 0.14902 0 0 0 0 0.196078 0 0 0 0 0.219608 0 0 0 0.3 0"/><feBlend in2="effect1_dropShadow_8326_263" result="effect2_dropShadow_8326_263"/><feBlend in="SourceGraphic" in2="effect2_dropShadow_8326_263" result="shape"/></filter><filter id="r" x="72.083" y="339.455" width="80.35" height="80.35" filterUnits="userSpaceOnUse" color-interpolation-filters="sRGB"><feFlood flood-opacity="0" result="BackgroundImageFix"/><feColorMatrix in="SourceAlpha" values="0 0 0 0 0 0 0 0 0 0 0 0 0 0 0 0 0 0 127 0" result="hardAlpha"/><feOffset dy=".587"/><feGaussianBlur stdDeviation=".587"/><feColorMatrix values="0 0 0 0 0.14902 0 0 0 0 0.196078 0 0 0 0 0.219608 0 0 0 0.06 0"/><feBlend in2="BackgroundImageFix" result="effect1_dropShadow_8326_263"/><feColorMatrix in="SourceAlpha" values="0 0 0 0 0 0 0 0 0 0 0 0 0 0 0 0 0 0 127 0" result="hardAlpha"/><feOffset/><feGaussianBlur stdDeviation=".294"/><feColorMatrix values="0 0 0 0 0.14902 0 0 0 0 0.196078 0 0 0 0 0.219608 0 0 0 0.3 0"/><feBlend in2="effect1_dropShadow_8326_263" result="effect2_dropShadow_8326_263"/><feBlend in="SourceGraphic" in2="effect2_dropShadow_8326_263" result="shape"/></filter><filter id="v" x="343.083" y="339.455" width="80.35" height="80.35" filterUnits="userSpaceOnUse" color-interpolation-filters="sRGB"><feFlood flood-opacity="0" result="BackgroundImageFix"/><feColorMatrix in="SourceAlpha" values="0 0 0 0 0 0 0 0 0 0 0 0 0 0 0 0 0 0 127 0" result="hardAlpha"/><feOffset dy=".587"/><feGaussianBlur stdDeviation=".587"/><feColorMatrix values="0 0 0 0 0.14902 0 0 0 0 0.196078 0 0 0 0 0.219608 0 0 0 0.06 0"/><feBlend in2="BackgroundImageFix" result="effect1_dropShadow_8326_263"/><feColorMatrix in="SourceAlpha" values="0 0 0 0 0 0 0 0 0 0 0 0 0 0 0 0 0 0 127 0" result="hardAlpha"/><feOffset/><feGaussianBlur stdDeviation=".294"/><feColorMatrix values="0 0 0 0 0.14902 0 0 0 0 0.196078 0 0 0 0 0.219608 0 0 0 0.3 0"/><feBlend in2="effect1_dropShadow_8326_263" result="effect2_dropShadow_8326_263"/><feBlend in="SourceGraphic" in2="effect2_dropShadow_8326_263" result="shape"/></filter><filter id="z" x="72.083" y="68.454" width="80.35" height="80.35" filterUnits="userSpaceOnUse" color-interpolation-filters="sRGB"><feFlood flood-opacity="0" result="BackgroundImageFix"/><feColorMatrix in="SourceAlpha" values="0 0 0 0 0 0 0 0 0 0 0 0 0 0 0 0 0 0 127 0" result="hardAlpha"/><feOffset dy=".587"/><feGaussianBlur stdDeviation=".587"/><feColorMatrix values="0 0 0 0 0.14902 0 0 0 0 0.196078 0 0 0 0 0.219608 0 0 0 0.06 0"/><feBlend in2="BackgroundImageFix" result="effect1_dropShadow_8326_263"/><feColorMatrix in="SourceAlpha" values="0 0 0 0 0 0 0 0 0 0 0 0 0 0 0 0 0 0 127 0" result="hardAlpha"/><feOffset/><feGaussianBlur stdDeviation=".294"/><feColorMatrix values="0 0 0 0 0.14902 0 0 0 0 0.196078 0 0 0 0 0.219608 0 0 0 0.3 0"/><feBlend in2="effect1_dropShadow_8326_263" result="effect2_dropShadow_8326_263"/><feBlend in="SourceGraphic" in2="effect2_dropShadow_8326_263" result="shape"/></filter><clipPath id="h"><path fill="#fff" transform="translate(232 13)" d="M0 0h32v32H0z"/></clipPath><clipPath id="j"><path fill="#fff" transform="translate(445.797 227)" d="M0 0h32v32H0z"/></clipPath><clipPath id="l"><path fill="#fff" transform="translate(13.797 227)" d="M0 0h32v32H0z"/></clipPath><clipPath id="q"><path fill="#fff" transform="translate(361.797 87)" d="M0 0h42v42H0z"/></clipPath><clipPath id="u"><path fill="#fff" transform="translate(90.797 358)" d="M0 0h42v42H0z"/></clipPath><clipPath id="y"><path fill="#fff" transform="translate(361.797 358)" d="M0 0h42v42H0z"/></clipPath></defs></svg>