<svg fill="none" height="100" width="100" xmlns="http://www.w3.org/2000/svg" xmlns:xlink="http://www.w3.org/1999/xlink"><clipPath id="a"><path d="m0 0h100v100h-100z"/></clipPath><g clip-path="url(#a)"><path d="m3.861 85.085h3.25a4.72 4.72 0 0 0 4.72-4.72v-.665l-.033-20.018h-7.906l-.03 25.403zm18.006-12.6v4.99h26.515v-6.194z" fill="#fff"/><path d="m48.384 78.346h-26.516a.87.87 0 0 1 -.87-.87v-4.992a.87.87 0 1 1 1.74 0v4.121h24.775v-5.324a.87.87 0 1 1 1.742 0v6.195a.87.87 0 0 1 -.871.87z" fill="#190c39"/><path d="m24.392 17.496c0 5.928 4.806 10.734 10.734 10.734s10.734-4.806 10.734-10.734-4.806-10.734-10.734-10.734-10.734 4.806-10.734 10.734z" fill="#fff"/><path d="m35.128 29.1c-6.399 0-11.605-5.205-11.605-11.603 0-6.4 5.206-11.605 11.605-11.605 6.398 0 11.604 5.206 11.604 11.605 0 6.398-5.206 11.604-11.604 11.604zm0-21.467c-5.439 0-9.864 4.426-9.864 9.864s4.425 9.863 9.864 9.863c5.438 0 9.862-4.425 9.862-9.863s-4.424-9.864-9.862-9.864z" fill="#190c39"/><path d="m18.101 43.383a8.84 8.84 0 0 1 8.84-8.84h21.445a8.84 8.84 0 0 1 8.84 8.84v21.548a6.343 6.343 0 0 1 -6.344 6.344h-17.075z" fill="#fff"/><path d="m50.882 72.145h-17.075a.87.87 0 1 1 0-1.741h17.075a5.48 5.48 0 0 0 5.473-5.472v-21.549c0-4.394-3.575-7.969-7.969-7.969h-21.445c-4.395 0-7.97 3.575-7.97 7.97a.87.87 0 1 1 -1.74 0c0-5.355 4.355-9.711 9.71-9.711h21.445c5.354 0 9.71 4.356 9.71 9.71v21.548c0 3.978-3.236 7.214-7.214 7.214z" fill="#190c39"/><path d="m32.996 54.39 3.294 2.862 3.293-2.861v-19.602h-6.587v19.602z" fill="#ffad5c"/><path d="m36.291 58.123a.87.87 0 0 1 -.57-.214l-3.295-2.861a.869.869 0 0 1 -.3-.657v-19.603c0-.48.39-.87.871-.87h6.587c.481 0 .87.39.87.87v19.602a.87.87 0 0 1 -.299.657l-3.293 2.861a.87.87 0 0 1 -.57.214zm-2.423-4.13 2.423 2.105 2.423-2.105v-18.333h-4.846v18.334zm22.858 2.89h-8.34a.87.87 0 1 1 0-1.742h8.34a.87.87 0 1 1 0 1.741z" fill="#190c39"/><path d="m21.867 77.475h26.515v15.457h-26.515z" fill="#fff"/><g fill="#190c39"><path d="m48.383 93.802a.87.87 0 0 1 -.87-.87v-14.586h-24.774v14.586a.87.87 0 1 1 -1.741 0v-15.456c0-.481.39-.87.87-.87h26.515c.481 0 .871.389.871.87v15.456a.87.87 0 0 1 -.87.87z"/><path d="m48.383 93.802a.87.87 0 0 1 -.87-.87v-14.586h-24.774v14.586a.87.87 0 1 1 -1.741 0v-15.456c0-.481.39-.87.87-.87h26.515c.481 0 .871.389.871.87v15.456a.87.87 0 0 1 -.87.87z"/><path d="m34.495 94.054a.87.87 0 0 1 -.87-.87v-5.604a.87.87 0 1 1 1.74 0v5.603a.87.87 0 0 1 -.87.87z"/></g><path d="m17.366 73.284h17.756l-8.79-29.297h-22.461l6.076 22.781z" fill="#ba9afd"/><path d="m35.122 74.154h-17.757a.87.87 0 1 1 0-1.741h16.587l-8.268-27.556h-20.68l5.783 21.686a.87.87 0 0 1 -.616 1.066.866.866 0 0 1 -1.066-.617l-6.076-22.781a.87.87 0 0 1 .841-1.095h22.462c.384 0 .723.252.834.62l8.79 29.298a.869.869 0 0 1 -.834 1.12z" fill="#190c39"/><path d="m7.942 70.765 1.775 4.984a2.938 2.938 0 0 0 3.754 1.781l.332-.118a5.583 5.583 0 1 0 -3.747-10.519l-.332.119a2.938 2.938 0 0 0 -1.782 3.753z" fill="#fff"/><path d="m12.48 78.573a3.798 3.798 0 0 1 -1.63-.37 3.783 3.783 0 0 1 -1.954-2.162l-1.775-4.984a3.781 3.781 0 0 1 .147-2.91 3.782 3.782 0 0 1 2.163-1.956l.33-.118a6.461 6.461 0 0 1 8.247 3.915 6.412 6.412 0 0 1 -.25 4.933 6.411 6.411 0 0 1 -3.665 3.311l-.331.118c-.418.15-.85.223-1.282.223zm-3.719-8.1 1.775 4.984c.185.52.563.937 1.061 1.174a2.05 2.05 0 0 0 1.58.079l.332-.118a4.678 4.678 0 0 0 2.676-2.418 4.68 4.68 0 0 0 .183-3.602 4.721 4.721 0 0 0 -6.021-2.859l-.33.119a2.05 2.05 0 0 0 -1.176 1.06 2.054 2.054 0 0 0 -.08 1.58zm39.497-7.493h-15.942a.87.87 0 1 1 0-1.741h15.942a.87.87 0 1 1 0 1.74z" fill="#190c39"/><path d="m48.386 62.816a.87.87 0 0 1 -.87-.87v-12.248a.87.87 0 1 1 1.74 0v12.248a.87.87 0 0 1 -.87.87z" fill="#190c39"/></g></svg>