<svg width="100" height="100" fill="none" xmlns="http://www.w3.org/2000/svg"><g clip-path="url(#a)"><path d="M31.137 10.535c2.774-.627 5.66-.959 8.624-.959 21.484 0 38.9 17.416 38.9 38.9 0 21.484-17.416 38.9-38.9 38.9-21.484 0-38.9-17.416-38.9-38.9 0-12.365 5.77-23.382 14.763-30.508l15.513-7.433Z" fill="#fff"/><path d="M39.76 88.236C17.836 88.236 0 70.4 0 48.476c0-12.22 5.5-23.585 15.088-31.183a.861.861 0 0 1 1.069 1.35C6.983 25.912 1.721 36.786 1.721 48.476c0 20.975 17.064 38.04 38.039 38.04S77.8 69.45 77.8 48.475c0-20.975-17.065-38.04-38.04-38.04-2.847 0-5.685.316-8.434.939a.86.86 0 0 1-.38-1.679c2.874-.65 5.84-.98 8.814-.98 21.924 0 39.76 17.836 39.76 39.76s-17.836 39.76-39.76 39.76Z" fill="#190C39"/><path d="M88.499 52.305v31.618l-15.546 5.883a6.958 6.958 0 0 1-5.709 0L51.7 83.923V52.305h36.8Z" fill="#BA9AFD"/><path d="M70.11 91.284a7.907 7.907 0 0 1-3.214-.692l-15.5-5.864a.86.86 0 0 1-.556-.805V52.305a.86.86 0 1 1 1.72 0V83.33l14.99 5.672c1.66.736 3.44.738 5.055.018l15.034-5.69V52.305a.86.86 0 1 1 1.721 0v31.618a.861.861 0 0 1-.556.805L73.26 90.611a7.723 7.723 0 0 1-3.148.673Z" fill="#190C39"/><path d="m67.838 58.463-26.33-10.048c-.597-.228-.597-1.198 0-1.425l26.33-10.049a6.299 6.299 0 0 1 4.525 0l26.33 10.049c.597.227.597 1.197 0 1.425l-26.33 10.048c-1.469.56-3.056.56-4.525 0Z" fill="#BA9AFD"/><path d="M70.1 59.741c-.871 0-1.742-.157-2.57-.474L41.2 49.22c-.608-.233-1-.828-1-1.517s.392-1.284 1-1.516l26.33-10.048a7.214 7.214 0 0 1 5.14 0l26.329 10.048c.608.232 1 .827 1 1.516 0 .69-.392 1.284-1 1.517L72.67 59.267a7.208 7.208 0 0 1-2.57.474Zm-1.957-2.082a5.401 5.401 0 0 0 3.913 0l26.09-9.957-26.09-9.956a5.395 5.395 0 0 0-3.912 0l-26.09 9.956 26.09 9.957Z" fill="#190C39"/><path d="M88.671 48.563H72.585a.86.86 0 1 1 0-1.721h16.086a.86.86 0 1 1 0 1.72Z" fill="#190C39"/><path d="M72.437 49.728a2.865 2.865 0 1 0-4.052-4.051 2.865 2.865 0 0 0 4.052 4.051Z" fill="#fff"/><path d="M70.413 51.428a3.73 3.73 0 0 1-3.725-3.726 3.73 3.73 0 0 1 3.725-3.725 3.73 3.73 0 0 1 3.726 3.725 3.73 3.73 0 0 1-3.726 3.726Zm0-5.73c-1.105 0-2.005.898-2.005 2.004 0 1.106.9 2.005 2.005 2.005 1.106 0 2.005-.899 2.005-2.005 0-1.105-.9-2.005-2.005-2.005ZM3.407 62.226a.86.86 0 0 1-.827-.624c-.795-2.785-.726-5.813.205-9.001.838-2.875 2.935-5.214 5.752-6.42l1.159-.495a7.867 7.867 0 0 0 4.688-8.26l-.191-1.417a8.27 8.27 0 0 1 3.167-7.656.86.86 0 1 1 1.045 1.366 6.546 6.546 0 0 0-2.507 6.06l.192 1.416a9.592 9.592 0 0 1-5.717 10.072l-1.158.496c-2.343 1.002-4.084 2.942-4.778 5.32-.839 2.871-.907 5.579-.203 8.047a.86.86 0 0 1-.827 1.096Zm28.905 25.15a.86.86 0 0 1-.815-.583l-2.71-7.971a1.668 1.668 0 0 0-1.579-1.131 3.382 3.382 0 0 1-3.34-2.814l-.21-1.228a4.314 4.314 0 0 0-1.873-2.88 4.307 4.307 0 0 0-3.38-.624l-2.683.609c-2.02.46-4.09.364-5.986-.274-2.255-.76-3.86-1.917-4.77-3.44a.86.86 0 1 1 1.477-.882c.694 1.16 1.987 2.066 3.842 2.69 1.594.537 3.344.614 5.056.227l2.684-.61a6.017 6.017 0 0 1 4.715.872 6.016 6.016 0 0 1 2.613 4.02l.211 1.228c.139.803.83 1.385 1.644 1.385 1.452 0 2.74.924 3.208 2.297l2.71 7.971a.86.86 0 0 1-.814 1.138Zm8.025-15.037a.86.86 0 0 1-.81-.57 5.807 5.807 0 0 1-.34-1.923l-.025-4.114a8.337 8.337 0 0 0-.238-1.929.861.861 0 0 1 1.671-.41c.186.758.282 1.541.288 2.329l.025 4.113c.003.463.084.919.24 1.354a.86.86 0 0 1-.81 1.15Zm-3.909-12.976a.859.859 0 0 1-.523-.177 8.293 8.293 0 0 0-4.21-1.669l-4.1-.417a5.355 5.355 0 0 1-4.63-3.888 14.417 14.417 0 0 1 3.413-13.806l2.68-2.816a9.756 9.756 0 0 1 12.994-1.038l1.691 1.288a2.825 2.825 0 0 0 3.748-.289c.545-.566.824-1.31.786-2.095a2.796 2.796 0 0 0-.983-2.009l-5.155-4.418a5.314 5.314 0 0 1-1.128-6.723l.584-.998a7.852 7.852 0 0 1 7.435-3.836l.932.082a2.624 2.624 0 0 0 2.586-1.465l.408-.837a8.458 8.458 0 0 1 1.636-2.272.86.86 0 1 1 1.21 1.223 6.722 6.722 0 0 0-1.302 1.81l-.402.823a4.352 4.352 0 0 1-4.288 2.432l-.932-.082a6.118 6.118 0 0 0-5.798 2.991l-.585.998a3.595 3.595 0 0 0 .764 4.548l5.155 4.417a4.506 4.506 0 0 1 1.582 3.234 4.503 4.503 0 0 1-1.266 3.37 4.548 4.548 0 0 1-6.03.466l-1.69-1.288a8.037 8.037 0 0 0-10.706.854l-2.679 2.816a12.687 12.687 0 0 0-3.005 12.15 3.64 3.64 0 0 0 3.15 2.645l4.1.418c1.852.189 3.61.885 5.082 2.015a.86.86 0 0 1-.524 1.543Z" fill="#190C39"/><path d="m19.85 23.672 5.262-10.824a.586.586 0 0 0-.5-.841l-11.692-.525a.586.586 0 0 0-.533.88l3.356 5.759 4.107 5.55Z" fill="#FFAD5C"/><path d="M19.85 24.532a.86.86 0 0 1-.773-1.237l5.079-10.447-10.771-.484 3.102 5.323a.86.86 0 0 1-1.487.868l-3.356-5.76a1.446 1.446 0 0 1 1.315-2.173l11.692.525a1.44 1.44 0 0 1 1.177.704c.25.42.272.933.058 1.372l-5.262 10.825a.86.86 0 0 1-.774.484Z" fill="#190C39"/><path d="M73.243 77.414a4.447 4.447 0 1 0-6.29-6.29 4.447 4.447 0 0 0 6.29 6.29Z" fill="#FFAD5C"/><path d="M70.1 79.577a5.314 5.314 0 0 1-5.309-5.308 5.314 5.314 0 0 1 5.308-5.308 5.314 5.314 0 0 1 5.308 5.308 5.314 5.314 0 0 1-5.308 5.308Zm0-8.895a3.591 3.591 0 0 0-3.588 3.587 3.591 3.591 0 0 0 3.587 3.587 3.591 3.591 0 0 0 3.587-3.587 3.591 3.591 0 0 0-3.587-3.587ZM70.099 66.883a.86.86 0 0 1-.86-.86v-3.88a.86.86 0 1 1 1.72 0v3.88a.86.86 0 0 1-.86.86ZM70.099 87.256a.86.86 0 0 1-.86-.86v-3.88a.86.86 0 1 1 1.72 0v3.88a.86.86 0 0 1-.86.86ZM82.225 75.13h-3.878a.86.86 0 1 1 0-1.721h3.878a.86.86 0 1 1 0 1.72ZM61.852 75.13h-3.878a.86.86 0 1 1 0-1.721h3.878a.86.86 0 1 1 0 1.72ZM75.93 69.298a.86.86 0 0 1-.608-1.469l2.743-2.742a.86.86 0 1 1 1.217 1.217l-2.743 2.742a.858.858 0 0 1-.608.252ZM61.525 83.704a.86.86 0 0 1-.608-1.469l2.742-2.743a.86.86 0 1 1 1.216 1.217l-2.742 2.743a.858.858 0 0 1-.608.252ZM64.267 69.298a.858.858 0 0 1-.608-.252l-2.743-2.742a.86.86 0 1 1 1.217-1.217l2.742 2.742a.86.86 0 0 1-.608 1.469ZM78.673 83.704a.858.858 0 0 1-.608-.252l-2.743-2.743a.86.86 0 1 1 1.217-1.217l2.743 2.743a.86.86 0 0 1-.609 1.469Z" fill="#190C39"/></g><defs><clipPath id="a"><path fill="#fff" d="M0 0h100v100H0z"/></clipPath></defs></svg>