<svg width="24" height="24" viewBox="0 0 24 24" fill="none" xmlns="http://www.w3.org/2000/svg">
<g style="mix-blend-mode:luminosity">
<g clip-path="url(#clip0_4403_12380)">
<rect width="24" height="24" fill="white"/>
<path d="M22.2239 0H1.77018C0.79362 0 0 0.77474 0 1.73047V22.2682C0 23.2239 0.79362 24 1.77018 24H22.2239C23.2025 24 23.9993 23.2239 23.9993 22.2682V1.73047C23.9993 0.77474 23.2025 0 22.2239 0Z" fill="white"/>
<path d="M3.55598 8.99756H7.11913V20.4507H3.55598V8.99756ZM5.33854 3.3042C6.47721 3.3042 7.40166 4.229 7.40166 5.36833C7.40166 6.50798 6.47721 7.43277 5.33854 7.43277C4.19531 7.43277 3.27344 6.50798 3.27344 5.36833C3.27344 4.229 4.19531 3.3042 5.33854 3.3042Z" fill="#545A69"/>
<path d="M9.35156 8.99758H12.7637V10.5633H12.8125C13.2871 9.66291 14.4486 8.71338 16.1804 8.71338C19.7845 8.71338 20.4506 11.0848 20.4506 14.1694V20.4507H16.8913V14.881C16.8913 13.5529 16.8685 11.8442 15.0417 11.8442C13.1895 11.8442 12.9069 13.2918 12.9069 14.786V20.4507H9.35156V8.99758Z" fill="#545A69"/>
</g>
</g>
<defs>
<clipPath id="clip0_4403_12380">
<rect width="24" height="24" fill="white"/>
</clipPath>
</defs>
</svg>
