<svg width="100" height="100" fill="none" xmlns="http://www.w3.org/2000/svg"><g clip-path="url(#a)"><path d="M7.031 61.719H3.906V72.28h.016a4.657 4.657 0 0 1 3.11-1.187c1.202 0 2.28.453 3.109 1.187h.015V61.72H7.031Z" fill="#BA9AFD"/><path d="M7.031 61.719v9.375a4.657 4.657 0 0 0-3.11 1.187h-.015V61.72h3.125Z" fill="#BA9AFD"/><path d="M86.719 47.5v34.531c0 5.172-4.203 9.375-9.375 9.375h-50c-5.172 0-9.375-4.203-9.375-9.375V47.5h.015l34.36 14.219L86.704 47.5h.015Z" fill="#fff"/><path d="M97.656 42.969 86.72 47.5h-.016l-34.36 14.219L17.985 47.5h-.015L7.03 42.969l45.313-18.75 45.312 18.75Z" fill="#fff"/><path d="M86.625 83.25c-.578 4.594-4.516 8.156-9.281 8.156h-50c-5.172 0-9.375-4.203-9.375-9.375V47.5h.015l21.328 8.828c11.876 13.953 28.47 23.75 47.313 26.922Z" fill="#fff"/><path d="M39.313 56.328 17.983 47.5h-.015L7.03 42.969 26.297 35a79.304 79.304 0 0 0 13.015 21.328Z" fill="#fff"/><path d="M11.719 75.781A4.681 4.681 0 0 1 7.03 80.47a4.681 4.681 0 0 1-4.687-4.688c0-1.375.61-2.64 1.562-3.5h.016a4.657 4.657 0 0 1 3.11-1.187c1.202 0 2.28.453 3.109 1.187h.015a4.734 4.734 0 0 1 1.563 3.5Z" fill="#FFAD5C"/><path d="M7.031 71.094v9.375a4.681 4.681 0 0 1-4.687-4.688c0-1.375.61-2.64 1.562-3.5h.016a4.657 4.657 0 0 1 3.11-1.187Z" fill="#FFAD5C"/><path d="M84.375 42.969H67.187a2.344 2.344 0 0 1-2.343-2.344V14.062a2.343 2.343 0 0 1 2.344-2.343h17.187a2.344 2.344 0 0 1 2.344 2.344v26.562a2.343 2.343 0 0 1-2.344 2.344Z" fill="#BA9AFD"/><path d="M78.906 8.594h-6.25v3.125h6.25V8.594Z" fill="#F9F0FE"/><path d="M86.719 40.203v.422a2.34 2.34 0 0 1-2.344 2.344H67.187a2.34 2.34 0 0 1-2.343-2.344V19.25a82.401 82.401 0 0 0 7.047 8.594 83.139 83.139 0 0 0 7.89 7.312 75.497 75.497 0 0 0 6.938 5.047Z" fill="#BA9AFD"/><path d="M75.781 22.656a3.125 3.125 0 1 0 0-6.25 3.125 3.125 0 0 0 0 6.25ZM80.469 35.156V30.47a4.687 4.687 0 1 0-9.375 0v4.687h9.375Z" fill="#FFAD5C"/><path d="M52.343 62.5a.79.79 0 0 1-.298-.06L6.733 43.69a.782.782 0 0 1 .596-1.443l45.014 18.627 45.014-18.627a.78.78 0 1 1 .597 1.444L52.642 62.44a.79.79 0 0 1-.299.06Z" fill="#190C39"/><path d="M97.656 43.75a.775.775 0 0 1-.298-.06L86.42 39.166a.782.782 0 0 1 .597-1.444l10.938 4.525a.782.782 0 0 1-.299 1.503Zm-90.625 0a.781.781 0 0 1-.298-1.503l45.312-18.75a.779.779 0 0 1 .599 0l12.5 5.173a.782.782 0 0 1-.597 1.444l-12.203-5.05L7.33 43.691a.77.77 0 0 1-.299.059Zm3.125 29.319a.782.782 0 0 1-.781-.782V62.5H4.687v9.787a.782.782 0 0 1-1.562 0V61.72c0-.432.35-.782.781-.782h6.25c.431 0 .781.35.781.782v10.568a.78.78 0 0 1-.78.782Z" fill="#190C39"/><path d="M7.031 81.25a5.475 5.475 0 0 1-5.468-5.469 5.475 5.475 0 0 1 5.468-5.469 5.475 5.475 0 0 1 5.469 5.47 5.475 5.475 0 0 1-5.469 5.468Zm0-9.375a3.912 3.912 0 0 0-3.906 3.906 3.912 3.912 0 0 0 3.906 3.906 3.912 3.912 0 0 0 3.907-3.906 3.912 3.912 0 0 0-3.907-3.906Zm70.316 20.312H27.34c-5.599 0-10.154-4.554-10.154-10.153v-34.54a.782.782 0 0 1 1.563 0v34.54c0 4.738 3.853 8.59 8.59 8.59h50.007c4.736 0 8.59-3.852 8.59-8.59v-34.54a.782.782 0 0 1 1.563 0v34.54c0 5.599-4.555 10.153-10.153 10.153Z" fill="#190C39"/><path d="M7.031 84.375a.782.782 0 0 1-.781-.781v-3.125a.782.782 0 0 1 1.563 0v3.125c0 .431-.35.781-.782.781Zm3.125-1.563a.782.782 0 0 1-.781-.78v-2.76a.782.782 0 0 1 1.563 0v2.76c0 .43-.35.78-.782.78Zm-6.25 0a.782.782 0 0 1-.781-.78v-2.76a.782.782 0 0 1 1.563 0v2.76c0 .43-.35.78-.782.78ZM7.031 62.5a.782.782 0 0 1-.781-.781v-18.75c0-.431.35-.782.781-.782h45.313a.782.782 0 0 1 0 1.563H7.812v17.969c0 .431-.35.781-.78.781ZM86.72 78.125H50.78a.782.782 0 0 1 0-1.563H86.72a.782.782 0 0 1 0 1.563Zm-56.25 0h-12.5a.782.782 0 0 1 0-1.563h12.5a.782.782 0 0 1 0 1.563Zm12.5 0h-7.813a.782.782 0 0 1 0-1.563h7.813a.782.782 0 0 1 0 1.563ZM84.375 43.75H67.187a3.128 3.128 0 0 1-3.124-3.125V14.062a3.128 3.128 0 0 1 3.124-3.124h17.188a3.128 3.128 0 0 1 3.125 3.124v26.563a3.128 3.128 0 0 1-3.125 3.125ZM67.187 12.5c-.862 0-1.562.7-1.562 1.563v26.562c0 .86.7 1.563 1.563 1.563h17.187c.862 0 1.563-.7 1.563-1.563V14.062c0-.86-.7-1.562-1.563-1.562H67.187Z" fill="#190C39"/><path d="M78.906 12.5a.782.782 0 0 1-.781-.781V9.375h-4.688v2.344a.782.782 0 0 1-1.562 0V8.594c0-.431.35-.781.781-.781h6.25c.431 0 .781.35.781.78v3.126c0 .431-.35.781-.78.781Zm-3.125 10.938a3.91 3.91 0 0 1-3.906-3.907 3.91 3.91 0 0 1 3.906-3.906 3.91 3.91 0 0 1 3.906 3.906 3.91 3.91 0 0 1-3.906 3.907Zm0-6.25a2.347 2.347 0 0 0-2.344 2.343 2.347 2.347 0 0 0 2.344 2.344 2.347 2.347 0 0 0 2.344-2.344 2.347 2.347 0 0 0-2.344-2.343Zm4.688 18.75h-9.375a.782.782 0 0 1-.781-.782V30.47A5.475 5.475 0 0 1 75.78 25a5.475 5.475 0 0 1 5.469 5.469v4.687c0 .431-.35.782-.781.782Zm-8.594-1.563h7.813v-3.906a3.91 3.91 0 0 0-3.907-3.907 3.91 3.91 0 0 0-3.906 3.907v3.906Zm10.156 4.688h-12.5a.782.782 0 0 1 0-1.563h12.5a.782.782 0 0 1 0 1.563Z" fill="#190C39"/></g><defs><clipPath id="a"><path fill="#fff" d="M0 0h100v100H0z"/></clipPath></defs></svg>