<svg width="101" height="101" viewBox="0 0 101 101" fill="none" xmlns="http://www.w3.org/2000/svg">
<path d="M51.6004 10.2188L52.3741 2.38376L55.3189 2.67457C55.9183 2.73377 56.4103 2.89563 56.7948 3.16014C57.1828 3.42501 57.4626 3.76414 57.6341 4.17754C57.8092 4.59129 57.8722 5.04706 57.823 5.54486C57.7735 6.04616 57.6224 6.48257 57.3698 6.85408C57.1211 7.22243 56.7788 7.49836 56.3429 7.68187C55.9075 7.86187 55.3865 7.92193 54.78 7.86203L52.8397 7.67042L52.955 6.50305L54.706 6.67597C55.0601 6.71094 55.3552 6.6799 55.5913 6.58287C55.8278 6.48233 56.0092 6.33033 56.1354 6.12687C56.2656 5.92026 56.3443 5.67848 56.3717 5.40153C56.3994 5.12108 56.3693 4.87032 56.2814 4.64925C56.1973 4.42503 56.0471 4.24382 55.8306 4.10563C55.618 3.96428 55.3347 3.87613 54.9806 3.84116L53.6766 3.71238L53.0202 10.359L51.6004 10.2188Z" fill="#F7F8FC"/>
<path d="M62.4533 3.9143L60.6259 11.5725L59.2793 11.2511L61.1067 3.59297L62.4533 3.9143Z" fill="#F7F8FC"/>
<path d="M63.8635 12.6747C63.5137 12.5442 63.2203 12.3632 62.9832 12.1319C62.7507 11.8985 62.5998 11.6279 62.5304 11.32C62.4611 11.0121 62.4941 10.6767 62.6296 10.3136C62.7454 10.0034 62.8992 9.76752 63.0911 9.606C63.2862 9.44571 63.5056 9.34146 63.7492 9.29324C63.9961 9.24625 64.255 9.23758 64.5259 9.26724C64.8014 9.29483 65.0794 9.34591 65.3598 9.4205C65.7001 9.50611 65.9759 9.57328 66.187 9.622C66.3982 9.67072 66.5611 9.68262 66.6757 9.6577C66.7902 9.63278 66.8709 9.55761 66.9177 9.43219L66.927 9.40744C66.9947 9.22592 67.0157 9.0589 66.9899 8.9064C66.964 8.75389 66.8925 8.61815 66.7752 8.49919C66.6612 8.38146 66.5036 8.28503 66.3022 8.2099C66.091 8.13109 65.8962 8.09409 65.7176 8.09891C65.5424 8.10497 65.385 8.14398 65.2453 8.21595C65.1102 8.28585 64.9978 8.3755 64.9081 8.4849L63.7549 7.85719C63.9762 7.55627 64.2393 7.33485 64.5442 7.19294C64.8536 7.04896 65.1877 6.97997 65.5464 6.98599C65.9096 6.98993 66.2843 7.06395 66.6705 7.20804C66.9345 7.30656 67.1868 7.43644 67.4274 7.59767C67.6693 7.7556 67.8721 7.94781 68.0357 8.17431C68.2026 8.40204 68.3065 8.66265 68.3474 8.95614C68.3916 9.25086 68.3453 9.58139 68.2086 9.94774L66.8269 13.6508L65.5843 13.1871L65.8688 12.4247L65.8143 12.4044C65.6784 12.5266 65.5127 12.6283 65.3169 12.7095C65.1258 12.7885 64.9075 12.8293 64.6622 12.8317C64.4202 12.8354 64.154 12.7831 63.8635 12.6747ZM64.5586 11.8399C64.8193 11.9372 65.0644 11.9704 65.294 11.9395C65.5282 11.9066 65.7301 11.824 65.8997 11.6918C66.0739 11.5575 66.1992 11.3881 66.2755 11.1834L66.5175 10.5349C66.4623 10.5519 66.3797 10.5568 66.2696 10.5495C66.164 10.5402 66.0458 10.5243 65.9151 10.5019C65.7844 10.4794 65.6565 10.4543 65.5316 10.4264C65.4099 10.3998 65.3043 10.3755 65.2148 10.3533C65.0102 10.3071 64.8187 10.2864 64.6401 10.2912C64.4662 10.294 64.3149 10.3315 64.1864 10.4039C64.0579 10.4762 63.9622 10.5966 63.8994 10.7649C63.8095 11.0058 63.8292 11.22 63.9586 11.4074C64.0879 11.5948 64.2879 11.7389 64.5586 11.8399Z" fill="#F7F8FC"/>
<path d="M68.2443 16.8592C68.0801 16.7632 67.9351 16.6621 67.8095 16.556C67.6869 16.4516 67.5943 16.3587 67.5317 16.2773L68.3567 15.5049L68.4054 15.5578C68.6113 15.7639 68.8169 15.8903 69.0223 15.9369C69.2307 15.9853 69.4644 15.8995 69.7235 15.6797L70.0189 15.4362L71.2219 9.14946L72.4946 9.89359L71.4086 14.4308L71.4634 14.4628L74.8985 11.2992L76.1757 12.0459L70.7644 16.6005C70.5088 16.8142 70.2475 16.9715 69.9804 17.0724C69.7115 17.1764 69.4337 17.2118 69.1469 17.1788C68.8584 17.1489 68.5575 17.0423 68.2443 16.8592Z" fill="#F7F8FC"/>
<path d="M83.8649 15.7091L80.8004 21.466L80.8551 21.5233L86.7488 18.727L87.8258 19.854L80.2208 23.2916L79.0051 22.0194L82.7806 14.5745L83.8649 15.7091Z" fill="#F7F8FC"/>
<path d="M83.0123 26.6622L87.8223 23.2325L88.6261 24.3597L83.816 27.7894L83.0123 26.6622ZM88.8997 23.3145C88.7708 23.1338 88.7206 22.936 88.749 22.721C88.7795 22.5089 88.8794 22.3425 89.0486 22.2219C89.2207 22.0992 89.412 22.058 89.6224 22.0983C89.8349 22.1415 90.0056 22.2534 90.1344 22.4341C90.2633 22.6148 90.3124 22.8112 90.282 23.0233C90.2535 23.2382 90.1547 23.4061 89.9855 23.5267C89.8134 23.6494 89.6211 23.6892 89.4086 23.646C89.1981 23.6057 89.0285 23.4952 88.8997 23.3145Z" fill="#F7F8FC"/>
<path d="M85.7834 31.1621C85.5655 30.7513 85.4742 30.3272 85.5094 29.8899C85.5493 29.454 85.7206 29.0362 86.023 28.6366C86.3254 28.237 86.7629 27.8853 87.3356 27.5816C87.9175 27.273 88.458 27.1079 88.957 27.0865C89.4577 27.0682 89.8966 27.1664 90.2736 27.3811C90.6523 27.599 90.9473 27.9071 91.1586 28.3054C91.322 28.6135 91.4043 28.8928 91.4056 29.1433C91.4085 29.397 91.3674 29.6202 91.2822 29.8129C91.2001 30.004 91.1133 30.1636 91.0218 30.2919L91.0491 30.3432L93.6492 28.9643L94.3003 30.192L87.3448 33.8808L86.7061 32.6764L87.5323 32.2382L87.4927 32.1635C87.3321 32.169 87.1481 32.1489 86.9405 32.1035C86.7378 32.0595 86.5331 31.9667 86.3264 31.8251C86.1228 31.6819 85.9418 31.4609 85.7834 31.1621ZM86.9699 30.9635C87.1086 31.2249 87.2966 31.4103 87.534 31.5196C87.7746 31.6273 88.0456 31.661 88.3472 31.6206C88.6536 31.5818 88.9748 31.4732 89.3109 31.295C89.6501 31.1151 89.9195 30.9124 90.1189 30.687C90.3215 30.46 90.4425 30.2183 90.4821 29.9621C90.5216 29.7058 90.4713 29.4455 90.331 29.1809C90.1874 28.9102 89.9953 28.721 89.7548 28.6133C89.5159 28.5087 89.2457 28.4766 88.9441 28.5169C88.6425 28.5572 88.3299 28.6632 88.0062 28.8349C87.6825 29.0065 87.4179 29.2067 87.2122 29.4354C87.0065 29.6641 86.8792 29.909 86.8303 30.1702C86.7815 30.4314 86.828 30.6958 86.9699 30.9635Z" fill="#F7F8FC"/>
<path d="M88.9269 38.5312C88.7508 37.9662 88.716 37.4402 88.8225 36.9532C88.9334 36.4684 89.1711 36.0475 89.5358 35.6903C89.9015 35.3365 90.3786 35.0679 90.9672 34.8844C91.549 34.7031 92.0926 34.6536 92.5979 34.7359C93.1066 34.8172 93.5455 35.018 93.9147 35.3384C94.285 35.6621 94.554 36.0929 94.7217 36.631C94.8296 36.9774 94.8763 37.3226 94.8618 37.6666C94.8483 38.014 94.7627 38.3432 94.6051 38.6543C94.4485 38.9688 94.2112 39.2494 93.8933 39.4961C93.5798 39.7451 93.1759 39.9466 92.6815 40.1007L92.2678 40.2296L90.8276 35.6087L91.7205 35.3304L92.9548 39.2905L92.5006 38.7568C92.8201 38.6572 93.0824 38.522 93.2874 38.351C93.4958 38.1791 93.6368 37.9746 93.7106 37.7376C93.7853 37.504 93.7782 37.2443 93.6891 36.9584C93.6 36.6725 93.4567 36.4497 93.2593 36.2898C93.0629 36.1333 92.8336 36.0369 92.5714 36.0006C92.3136 35.9665 92.0451 35.993 91.766 36.08L91.1455 36.2734C90.8024 36.3803 90.527 36.5326 90.3193 36.7302C90.1149 36.9267 89.9823 37.1525 89.9216 37.4076C89.8619 37.666 89.8766 37.9382 89.9657 38.224C90.0255 38.4157 90.1064 38.5805 90.2084 38.7185C90.3104 38.8564 90.4331 38.9658 90.5763 39.0466C90.7229 39.1263 90.8859 39.1696 91.0651 39.1765L91.3056 40.4631C90.9553 40.4874 90.6233 40.4285 90.3097 40.2864C89.9994 40.1433 89.7246 39.9246 89.4852 39.6302C89.2492 39.3347 89.0631 38.9684 88.9269 38.5312Z" fill="#F7F8FC"/>
<path d="M90.4612 45.5386C90.3931 44.9684 90.4597 44.4567 90.661 44.0034C90.8627 43.5536 91.1771 43.1861 91.6042 42.9009C92.0318 42.6192 92.5464 42.4424 93.148 42.3706C93.7531 42.2983 94.2966 42.3487 94.7785 42.5217C95.2643 42.6978 95.6582 42.9807 95.9601 43.3704C96.2625 43.7635 96.4478 44.2451 96.5159 44.8153C96.5844 45.3889 96.5178 45.9007 96.3161 46.3505C96.1144 46.8003 95.7983 47.168 95.3676 47.4536C94.9405 47.7388 94.4244 47.9175 93.8193 47.9898C93.2176 48.0617 92.6757 48.0093 92.1934 47.8328C91.7111 47.6562 91.319 47.3732 91.017 46.9835C90.715 46.5938 90.5297 46.1122 90.4612 45.5386ZM91.5741 45.4109C91.6118 45.7257 91.7268 45.9763 91.9194 46.1626C92.1158 46.352 92.3653 46.4801 92.6677 46.5468C92.9706 46.6171 93.2986 46.6311 93.6519 46.5889C94.0122 46.5459 94.3312 46.4546 94.609 46.3149C94.8872 46.1788 95.0977 45.9958 95.2405 45.7659C95.3873 45.539 95.4418 45.2682 95.4042 44.9534C95.3666 44.6386 95.2496 44.3865 95.0531 44.1971C94.8606 44.0108 94.6129 43.8825 94.31 43.8123C94.0072 43.742 93.6756 43.7284 93.3153 43.7714C92.9621 43.8136 92.6465 43.9045 92.3688 44.0442C92.091 44.1838 91.8787 44.367 91.732 44.5939C91.5891 44.8238 91.5365 45.0961 91.5741 45.4109Z" fill="#F7F8FC"/>
<path d="M89.9074 57.9521C90.3946 55.7102 92.6088 54.2866 94.8506 54.7738C97.0925 55.261 98.5161 57.4751 98.0289 59.717C97.5417 61.9589 95.3276 63.3825 93.0857 62.8953C90.8438 62.4081 89.4202 60.1939 89.9074 57.9521ZM90.4256 58.0647C90.0005 60.021 91.242 61.952 93.1983 62.3771C95.1547 62.8023 97.0856 61.5607 97.5107 59.6044C97.9359 57.6481 96.6944 55.7171 94.738 55.292C92.7817 54.8668 90.8507 56.1084 90.4256 58.0647ZM93.1539 58.6576C93.2527 58.2029 93.701 57.9238 94.1451 58.0203C94.5998 58.1191 94.8812 58.5568 94.7824 59.0115C94.6859 59.4556 94.2459 59.7476 93.7912 59.6488C93.3471 59.5523 93.0574 59.1017 93.1539 58.6576Z" fill="#F7F8FC"/>
<path d="M86.4376 69.2961L93.1252 73.4509L91.5636 75.9644C91.2457 76.476 90.8832 76.8459 90.4761 77.074C90.0671 77.3052 89.6393 77.4064 89.1926 77.3777C88.7441 77.352 88.3073 77.2072 87.8825 76.9432C87.4546 76.6774 87.1298 76.3491 86.908 75.9584C86.6874 75.5725 86.5911 75.1435 86.6189 74.6715C86.6498 74.2013 86.826 73.7074 87.1476 73.1897L88.1765 71.5335L89.1729 72.1525L88.2444 73.6472C88.0566 73.9494 87.9541 74.2278 87.9369 74.4825C87.9226 74.7391 87.9789 74.969 88.1057 75.1721C88.2335 75.3802 88.4157 75.5576 88.6521 75.7045C88.8914 75.8532 89.1297 75.9369 89.3669 75.9557C89.6052 75.9793 89.8341 75.9246 90.0537 75.7914C90.2744 75.6631 90.4786 75.4479 90.6664 75.1457L91.3579 74.0325L85.6847 70.5079L86.4376 69.2961Z" fill="#F7F8FC"/>
<path d="M87.2892 81.8359L81.2246 76.8152L82.1075 75.7488L88.172 80.7695L87.2892 81.8359Z" fill="#F7F8FC"/>
<path d="M78.8172 79.2275C79.0883 78.9708 79.3799 78.7868 79.6919 78.6757C80.0038 78.5696 80.3132 78.5531 80.6202 78.6262C80.9272 78.6993 81.2139 78.8766 81.4804 79.1579C81.708 79.3984 81.8522 79.6402 81.9129 79.8836C81.971 80.1294 81.9681 80.3723 81.9043 80.6122C81.8379 80.8546 81.7318 81.0909 81.586 81.3212C81.44 81.5565 81.2719 81.7836 81.0815 82.0027C80.855 82.2707 80.6734 82.4887 80.5367 82.657C80.4001 82.8252 80.3178 82.9662 80.2897 83.0801C80.2617 83.1939 80.2937 83.2995 80.3858 83.3967L80.4039 83.4158C80.5372 83.5565 80.6779 83.6488 80.8263 83.6927C80.9746 83.7366 81.1279 83.7321 81.2864 83.6791C81.4422 83.6285 81.5982 83.5293 81.7542 83.3815C81.9179 83.2265 82.0368 83.0678 82.111 82.9053C82.1827 82.7453 82.2169 82.5868 82.2137 82.4297C82.2103 82.2776 82.1793 82.1372 82.1205 82.0085L83.1914 81.249C83.3643 81.5801 83.4474 81.9138 83.4408 82.25C83.434 82.5912 83.349 82.9216 83.1858 83.2411C83.0225 83.5655 82.7912 83.8695 82.492 84.1529C82.2874 84.3467 82.0597 84.5162 81.8091 84.6613C81.5609 84.8091 81.2991 84.9066 81.0237 84.954C80.7457 85.0037 80.466 84.9824 80.1844 84.89C79.9003 84.8001 79.6238 84.6131 79.355 84.3292L76.6372 81.4595L77.6002 80.5475L78.1597 81.1383L78.2019 81.0984C78.1519 80.9226 78.1335 80.7289 78.1467 80.5175C78.1598 80.311 78.2192 80.0971 78.3249 79.8757C78.428 79.6568 78.5921 79.4407 78.8172 79.2275ZM79.2612 80.2189C79.0591 80.4103 78.9215 80.6158 78.8482 80.8356C78.7748 81.0604 78.7602 81.278 78.8043 81.4885C78.8483 81.704 78.9453 81.891 79.0955 82.0496L79.5715 82.5522C79.5805 82.4951 79.6125 82.4188 79.6674 82.3231C79.7222 82.2324 79.7885 82.1333 79.8661 82.0257C79.9438 81.9182 80.0226 81.8144 80.1026 81.7144C80.18 81.6169 80.2483 81.5328 80.3076 81.4621C80.4391 81.2987 80.542 81.1358 80.6161 80.9734C80.6902 80.8159 80.723 80.6636 80.7145 80.5163C80.7061 80.3691 80.6401 80.2302 80.5166 80.0998C80.3397 79.9131 80.1387 79.8366 79.9136 79.8703C79.6884 79.9041 79.4709 80.0203 79.2612 80.2189Z" fill="#F7F8FC"/>
<path d="M73.1312 81.3306C73.2895 81.2252 73.4439 81.1392 73.5944 81.0729C73.7419 81.0084 73.866 80.966 73.9667 80.9455L74.299 82.0257L74.2301 82.0462C73.9546 82.1408 73.7508 82.2702 73.6189 82.4343C73.484 82.6004 73.4585 82.848 73.5424 83.1773L73.6317 83.5496L78.7538 87.388L77.5269 88.2054L73.9257 85.2394L73.8729 85.2746L75.2094 89.7493L73.9781 90.5695L72.2584 83.7089C72.1784 83.3855 72.1517 83.0816 72.1781 82.7973C72.2026 82.5101 72.2926 82.2448 72.448 82.0016C72.6015 81.7555 72.8292 81.5318 73.1312 81.3306Z" fill="#F7F8FC"/>
<path d="M67.3003 95.8697L63.4812 90.5832L63.4056 90.6071L63.3208 97.13L61.8347 97.6006L62.0974 89.2589L63.7749 88.7276L68.7965 95.3959L67.3003 95.8697Z" fill="#F7F8FC"/>
<path d="M57.8394 90.2756L58.7908 96.106L57.4245 96.3289L56.473 90.4986L57.8394 90.2756ZM58.2413 97.0362C58.4603 97.0005 58.6599 97.0428 58.8402 97.1633C59.017 97.2844 59.1222 97.4475 59.1556 97.6526C59.1897 97.8612 59.1421 98.051 59.013 98.222C58.8804 98.3935 58.7045 98.4972 58.4855 98.5329C58.2665 98.5687 58.0686 98.526 57.8918 98.405C57.7115 98.2845 57.6046 98.1217 57.5711 97.9165C57.5371 97.7079 57.5864 97.5179 57.719 97.3463C57.8481 97.1753 58.0222 97.072 58.2413 97.0362Z" fill="#F7F8FC"/>
<path d="M52.5682 90.7728C53.0329 90.7587 53.4538 90.864 53.8306 91.0887C54.2041 91.3171 54.5033 91.6551 54.7283 92.103C54.9533 92.5508 55.0757 93.0986 55.0953 93.7465C55.1153 94.4049 55.0247 94.9627 54.8235 95.4199C54.6189 95.8773 54.337 96.2277 53.9779 96.4711C53.6152 96.7147 53.2085 96.8434 52.7578 96.857C52.4092 96.8676 52.1223 96.8181 51.8969 96.7086C51.668 96.5993 51.486 96.4638 51.3507 96.3023C51.2155 96.1443 51.1105 95.9959 51.0359 95.8572L50.9778 95.859L51.0669 98.8008L49.6779 98.8429L49.4394 90.9733L50.802 90.932L50.8304 91.8669L50.9149 91.8643C50.9809 91.7178 51.0801 91.5615 51.2125 91.3954C51.3415 91.2329 51.5152 91.0902 51.7335 90.9673C51.9519 90.8479 52.2301 90.783 52.5682 90.7728ZM52.2225 91.9251C51.9267 91.9341 51.6773 92.021 51.4744 92.1857C51.2716 92.354 51.1216 92.5823 51.0247 92.8707C50.9243 93.1627 50.8798 93.4989 50.8913 93.8792C50.903 94.263 50.9659 94.5941 51.08 94.8726C51.1943 95.1546 51.3577 95.3699 51.5701 95.5185C51.7825 95.6672 52.0384 95.7369 52.3377 95.7279C52.644 95.7186 52.8986 95.6298 53.1014 95.4616C53.3007 95.2934 53.4489 95.0651 53.5459 94.7767C53.6429 94.4883 53.6858 94.161 53.6747 93.7948C53.6636 93.4286 53.6009 93.1028 53.4865 92.8172C53.3721 92.5317 53.2086 92.3094 52.9958 92.1502C52.783 91.991 52.5253 91.916 52.2225 91.9251Z" fill="#F7F8FC"/>
<path d="M44.5115 90.3459C45.0963 90.4366 45.584 90.6369 45.9744 90.947C46.3607 91.26 46.634 91.6588 46.7942 92.1435C46.9508 92.6276 46.9819 93.1743 46.8875 93.7835C46.7942 94.3857 46.5993 94.8955 46.3029 95.313C46.0059 95.734 45.6324 96.0397 45.1822 96.2301C44.7286 96.42 44.2233 96.4718 43.6663 96.3855C43.3077 96.3299 42.9772 96.2198 42.6748 96.0553C42.3688 95.8903 42.1109 95.6685 41.901 95.39C41.6876 95.1109 41.5401 94.7744 41.4586 94.3803C41.3731 93.9892 41.37 93.5378 41.4493 93.0261L41.5156 92.5979L46.2987 93.3393L46.1554 94.2635L42.0564 93.6282L42.7355 93.4554C42.6843 93.7861 42.6903 94.0811 42.7534 94.3404C42.8161 94.6032 42.9376 94.8199 43.1179 94.9904C43.2947 95.1604 43.5311 95.2684 43.827 95.3142C44.1229 95.3601 44.386 95.3296 44.6165 95.2227C44.8435 95.1153 45.031 94.9519 45.1791 94.7324C45.3231 94.5159 45.4176 94.2632 45.4623 93.9743L45.5619 93.332C45.6169 92.9769 45.6015 92.6626 45.5156 92.3891C45.4291 92.119 45.2847 91.9006 45.0824 91.7338C44.8767 91.5664 44.6258 91.4598 44.3299 91.4139C44.1315 91.3832 43.9479 91.3832 43.7792 91.4141C43.6104 91.445 43.4582 91.507 43.3226 91.6C43.1864 91.6965 43.0758 91.8238 42.9907 91.9817L41.7297 91.6312C41.8621 91.3059 42.0611 91.0337 42.3268 90.8147C42.5919 90.5991 42.9093 90.4487 43.279 90.3634C43.6481 90.2816 44.059 90.2758 44.5115 90.3459Z" fill="#F7F8FC"/>
<path d="M37.536 88.6357C38.0778 88.8258 38.5078 89.111 38.8261 89.4915C39.141 89.8708 39.3323 90.3149 39.4001 90.824C39.4645 91.332 39.3965 91.8718 39.1959 92.4435C38.9941 93.0186 38.7094 93.4843 38.3417 93.8406C37.9695 94.1991 37.542 94.428 37.0592 94.5274C36.573 94.6256 36.059 94.5796 35.5172 94.3895C34.9721 94.1983 34.542 93.913 34.2271 93.5337C33.9122 93.1544 33.7215 92.7086 33.6548 92.1962C33.5871 91.6871 33.6541 91.145 33.8558 90.5699C34.0564 89.9982 34.3422 89.5348 34.7132 89.1796C35.0842 88.8245 35.5111 88.5972 35.994 88.4978C36.4768 88.3985 36.9908 88.4444 37.536 88.6357ZM37.1601 89.691C36.861 89.586 36.5853 89.5789 36.3332 89.6696C36.0767 89.7625 35.8518 89.93 35.6586 90.1721C35.462 90.413 35.3049 90.7013 35.1871 91.037C35.067 91.3794 35.0084 91.706 35.0113 92.0169C35.0109 92.3266 35.0824 92.5962 35.2259 92.8258C35.3649 93.0575 35.5839 93.2258 35.8831 93.3307C36.1822 93.4357 36.4601 93.4417 36.7167 93.3488C36.9688 93.2581 37.1931 93.0923 37.3896 92.8514C37.5861 92.6105 37.7445 92.3188 37.8646 91.9764C37.9824 91.6407 38.0398 91.3174 38.0369 91.0065C38.034 90.6957 37.963 90.4244 37.8241 90.1927C37.6806 89.9632 37.4593 89.7959 37.1601 89.691Z" fill="#F7F8FC"/>
<path d="M26.6991 82.6794C28.4949 84.1071 28.7936 86.7224 27.3659 88.5182C25.9383 90.3141 23.3229 90.6128 21.5271 89.1851C19.7313 87.7574 19.4326 85.1421 20.8602 83.3463C22.2879 81.5504 24.9032 81.2517 26.6991 82.6794ZM26.3691 83.0945C24.802 81.8486 22.5212 82.1091 21.2753 83.6763C20.0295 85.2434 20.29 87.5242 21.8571 88.77C23.4242 90.0159 25.705 89.7554 26.9508 88.1882C28.1967 86.6211 27.9362 84.3403 26.3691 83.0945ZM24.6316 85.28C24.9959 85.5696 25.0482 86.095 24.7653 86.4508C24.4758 86.815 23.9588 86.8741 23.5945 86.5845C23.2388 86.3017 23.1712 85.778 23.4608 85.4137C23.7437 85.0579 24.2758 84.9971 24.6316 85.28Z" fill="#F7F8FC"/>
<path d="M16.0875 71.6712L9.08225 75.2647L7.73165 72.6319C7.45671 72.0959 7.32628 71.5947 7.34037 71.1282C7.35285 70.6586 7.48638 70.2397 7.74095 69.8716C7.99392 69.5003 8.34294 69.2005 8.78801 68.9722C9.23622 68.7422 9.68489 68.6328 10.134 68.644C10.5784 68.6535 10.9957 68.7918 11.3861 69.0588C11.7733 69.3273 12.1059 69.7327 12.3841 70.275L13.274 72.0098L12.2303 72.5452L11.4272 70.9796C11.2648 70.6631 11.0789 70.4318 10.8694 70.2859C10.6568 70.1416 10.4308 70.0714 10.1913 70.0755C9.94716 70.078 9.70127 70.1428 9.45366 70.2698C9.20291 70.3984 9.00843 70.5595 8.87022 70.7532C8.72726 70.9453 8.65632 71.1697 8.65739 71.4265C8.65373 71.6818 8.73309 71.9677 8.89549 72.2843L9.49361 73.4502L15.4363 70.4018L16.0875 71.6712Z" fill="#F7F8FC"/>
<path d="M4.89994 65.9366L12.3295 63.3313L12.7876 64.6377L5.35807 67.2431L4.89994 65.9366Z" fill="#F7F8FC"/>
<path d="M11.5092 60.0025C11.5885 60.3674 11.595 60.7121 11.5285 61.0365C11.4579 61.3583 11.3119 61.6316 11.0904 61.8564C10.8689 62.0812 10.5688 62.2348 10.1902 62.3171C9.86659 62.3875 9.58499 62.3856 9.34538 62.3115C9.10501 62.234 8.8987 62.1058 8.72643 61.927C8.55341 61.7447 8.40613 61.5316 8.28459 61.2877C8.15886 61.041 8.05154 60.7796 7.96263 60.5033C7.85067 60.1707 7.75809 59.9025 7.6849 59.6985C7.6117 59.4945 7.53365 59.351 7.45073 59.2681C7.36781 59.1852 7.26095 59.158 7.13015 59.1864L7.10433 59.192C6.91501 59.2332 6.76318 59.3059 6.64884 59.41C6.5345 59.5142 6.459 59.6478 6.42234 59.8108C6.38493 59.9703 6.38905 60.1551 6.43471 60.3651C6.48261 60.5854 6.55685 60.7693 6.65743 60.9169C6.75726 61.061 6.8752 61.1723 7.01125 61.2509C7.14311 61.3268 7.2793 61.3729 7.41984 61.3892L7.5153 62.6986C7.14249 62.6752 6.81398 62.5736 6.52976 62.3938C6.24135 62.2114 6.0027 61.9677 5.81381 61.6627C5.62073 61.355 5.4804 60.9998 5.39283 60.597C5.33296 60.3216 5.30578 60.0391 5.31131 59.7495C5.31339 59.4607 5.36546 59.1862 5.46752 58.9261C5.56883 58.6625 5.73188 58.4342 5.95667 58.2411C6.18071 58.0446 6.48377 57.9048 6.86586 57.8217L10.728 56.982L11.0098 58.278L10.2147 58.4509L10.227 58.5076C10.4033 58.5558 10.5785 58.6403 10.7526 58.7611C10.9225 58.8792 11.0748 59.0407 11.2095 59.2457C11.3434 59.4473 11.4433 59.6996 11.5092 60.0025ZM10.4312 59.8692C10.372 59.5973 10.2674 59.3731 10.1173 59.1966C9.96298 59.0175 9.78435 58.8923 9.5814 58.8211C9.37426 58.7471 9.16398 58.7334 8.95056 58.7798L8.27417 58.9269C8.31832 58.9641 8.36711 59.031 8.42054 59.1276C8.46979 59.2214 8.5203 59.3294 8.57209 59.4515C8.62388 59.5736 8.67185 59.6948 8.71601 59.8149C8.75942 59.9317 8.79601 60.0337 8.8258 60.1209C8.8975 60.318 8.98364 60.4904 9.08422 60.6379C9.18061 60.7828 9.29398 60.8897 9.42434 60.9587C9.5547 61.0277 9.70766 61.0431 9.88321 61.005C10.1345 60.9503 10.304 60.8179 10.3917 60.6078C10.4794 60.3977 10.4925 60.1515 10.4312 59.8692Z" fill="#F7F8FC"/>
<path d="M12.6544 54.0667C12.6627 54.2567 12.6563 54.4333 12.6352 54.5964C12.614 54.756 12.586 54.8842 12.5515 54.9809L11.4552 54.706L11.4734 54.6365C11.535 54.3517 11.5298 54.1104 11.4577 53.9126C11.3854 53.7112 11.1867 53.5612 10.8616 53.4625L10.4968 53.3462L4.56119 55.7417L4.497 54.2688L8.89885 52.723L8.89608 52.6596L4.37575 51.4868L4.31133 50.0087L11.0714 52.0888C11.3896 52.1878 11.6634 52.3222 11.8929 52.492C12.126 52.6617 12.3064 52.8759 12.434 53.1348C12.5652 53.3936 12.6386 53.7042 12.6544 54.0667Z" fill="#F7F8FC"/>
<path d="M3.23036 41.5043L9.72984 40.966L9.74839 40.8889L4.20755 37.446L4.57245 35.9305L11.5787 40.4654L11.1668 42.1761L2.86299 43.0301L3.23036 41.5043Z" fill="#F7F8FC"/>
<path d="M12.9038 36.298L7.42052 34.0999L7.93564 32.8149L13.419 35.013L12.9038 36.298ZM6.90806 33.1487C6.82548 33.3547 6.68604 33.5037 6.48972 33.5958C6.29472 33.6846 6.10076 33.6904 5.90785 33.6131C5.71167 33.5344 5.57375 33.3956 5.49409 33.1967C5.41575 32.9945 5.41786 32.7904 5.50044 32.5844C5.58302 32.3784 5.72181 32.231 5.91681 32.1422C6.11312 32.0501 6.30774 32.0428 6.50065 32.1201C6.69683 32.1987 6.8341 32.3392 6.91244 32.5413C6.9921 32.7403 6.99064 32.9427 6.90806 33.1487Z" fill="#F7F8FC"/>
<path d="M15.207 31.5259C14.9784 31.9308 14.6704 32.2363 14.2831 32.4423C13.8944 32.6436 13.4502 32.7245 12.9506 32.6852C12.4509 32.6458 11.9189 32.4668 11.3545 32.1482C10.7809 31.8243 10.3505 31.458 10.0635 31.0492C9.77827 30.6373 9.62446 30.2147 9.60212 29.7814C9.58151 29.345 9.68204 28.9305 9.90372 28.5378C10.0752 28.2341 10.2661 28.0142 10.4764 27.8781C10.6885 27.739 10.8986 27.6533 11.1069 27.6212C11.3121 27.5874 11.4933 27.5744 11.6507 27.5824L11.6793 27.5317L9.11632 26.0848L9.79954 24.8746L16.6555 28.7453L15.9853 29.9325L15.1708 29.4727L15.1293 29.5463C15.2204 29.6787 15.3028 29.8445 15.3763 30.0438C15.4485 30.2383 15.4807 30.4607 15.4728 30.7111C15.4619 30.9598 15.3733 31.2314 15.207 31.5259ZM14.4002 30.6335C14.5457 30.3758 14.6005 30.1175 14.5646 29.8586C14.5257 29.5979 14.408 29.3514 14.2115 29.1191C14.0136 28.882 13.749 28.67 13.4177 28.4829C13.0834 28.2941 12.7675 28.1765 12.4702 28.13C12.1697 28.0817 11.9009 28.11 11.6638 28.2148C11.4266 28.3195 11.2345 28.5023 11.0872 28.763C10.9366 29.0299 10.8807 29.2937 10.9196 29.5543C10.9603 29.8119 11.0789 30.0569 11.2754 30.2892C11.4719 30.5215 11.7297 30.7277 12.0487 30.9078C12.3677 31.0879 12.679 31.203 12.9825 31.253C13.286 31.3029 13.5609 31.2781 13.8072 31.1786C14.0536 31.079 14.2513 30.8973 14.4002 30.6335Z" fill="#F7F8FC"/>
<path d="M19.7164 24.9004C19.336 25.3538 18.9122 25.6672 18.4448 25.8407C17.977 26.0092 17.4943 26.0365 16.9967 25.9226C16.5014 25.8059 16.0176 25.5495 15.5453 25.1533C15.0784 24.7616 14.7431 24.3309 14.5394 23.8612C14.3331 23.3892 14.2649 22.9113 14.3351 22.4276C14.4075 21.9412 14.6248 21.482 14.9871 21.0502C15.2202 20.7723 15.4855 20.5465 15.7829 20.3729C16.0825 20.1966 16.4058 20.0908 16.7527 20.0554C17.102 20.0173 17.4662 20.0654 17.8456 20.1997C18.2245 20.329 18.6123 20.5601 19.009 20.8929L19.3409 21.1714L16.2302 24.8795L15.5137 24.2784L18.1795 21.1006L17.9757 21.7711C17.7193 21.556 17.4639 21.4083 17.2093 21.3281C16.952 21.2456 16.7038 21.2374 16.4645 21.3034C16.2275 21.3666 16.0128 21.513 15.8203 21.7424C15.6279 21.9718 15.5177 22.2127 15.4898 22.4652C15.4642 22.715 15.5069 22.96 15.618 23.2003C15.7286 23.4357 15.896 23.6473 16.12 23.8352L16.6179 24.253C16.8932 24.4839 17.17 24.6334 17.4486 24.7015C17.7244 24.7674 17.986 24.757 18.2335 24.6703C18.4832 24.5809 18.7043 24.4215 18.8967 24.1921C19.0257 24.0383 19.1208 23.8812 19.1817 23.7208C19.2427 23.5604 19.2685 23.3981 19.2591 23.2339C19.247 23.0675 19.1954 22.9069 19.1044 22.7524L20.0572 21.855C20.2669 22.1367 20.3967 22.4479 20.4465 22.7886C20.4937 23.127 20.458 23.4764 20.3396 23.8369C20.2184 24.1951 20.0107 24.5496 19.7164 24.9004Z" fill="#F7F8FC"/>
<path d="M24.7856 19.8189C24.3433 20.185 23.8771 20.4063 23.387 20.4826C22.8996 20.5568 22.4204 20.4916 21.9493 20.287C21.4809 20.0802 21.0536 19.7434 20.6673 19.2766C20.2787 18.8071 20.0267 18.323 19.9111 17.8242C19.796 17.3205 19.8204 16.8362 19.9843 16.3712C20.151 15.9041 20.4555 15.4875 20.8978 15.1214C21.3429 14.753 21.8091 14.5318 22.2965 14.4577C22.7838 14.3835 23.2642 14.4501 23.7375 14.6574C24.2086 14.8619 24.6384 15.199 25.027 15.6684C25.4133 16.1352 25.6629 16.6191 25.7758 17.1201C25.8886 17.6212 25.8631 18.1041 25.6992 18.5691C25.5352 19.034 25.2307 19.4506 24.7856 19.8189ZM24.0755 18.9526C24.3197 18.7504 24.468 18.518 24.5203 18.2552C24.5731 17.9875 24.5456 17.7084 24.4379 17.418C24.3329 17.1254 24.167 16.8421 23.9401 16.568C23.7088 16.2884 23.4592 16.0697 23.1914 15.9119C22.9262 15.7518 22.6584 15.674 22.3877 15.6785C22.1176 15.678 21.8604 15.7788 21.6161 15.981C21.3719 16.1831 21.2234 16.4181 21.1706 16.6858C21.1183 16.9486 21.1446 17.2263 21.2496 17.5189C21.3546 17.8115 21.5228 18.0976 21.7542 18.3771C21.981 18.6512 22.2283 18.8672 22.4962 19.025C22.764 19.1829 23.033 19.2621 23.3032 19.2625C23.5738 19.258 23.8312 19.1547 24.0755 18.9526Z" fill="#F7F8FC"/>
<path d="M38.1799 12.5093C36.0305 13.3116 33.6358 12.2187 32.8335 10.0694C32.0312 7.92007 33.1241 5.52536 35.2734 4.72306C37.4227 3.92076 39.8175 5.01363 40.6198 7.16296C41.4221 9.31229 40.3292 11.707 38.1799 12.5093ZM37.9944 12.0125C39.87 11.3124 40.8231 9.22399 40.123 7.3484C39.4229 5.4728 37.3345 4.51972 35.4589 5.21984C33.5833 5.91996 32.6302 8.00837 33.3303 9.88396C34.0304 11.7596 36.1188 12.7126 37.9944 12.0125ZM37.018 9.39683C36.5821 9.55956 36.1049 9.33339 35.946 8.90758C35.7833 8.47163 35.9993 7.99826 36.4352 7.83553C36.8611 7.67658 37.3446 7.88883 37.5073 8.32478C37.6662 8.75059 37.4439 9.23789 37.018 9.39683Z" fill="#F7F8FC"/>
</svg>
